<?xml version="1.0" encoding="UTF-8" standalone="no"?>
<!-- Created with Inkscape (http://www.inkscape.org/) -->

<svg
   version="1.1"
   id="svg1"
   width="755.81897"
   height="256.05627"
   viewBox="0 0 755.81896 256.05628"
   xmlns="http://www.w3.org/2000/svg"
   xmlns:svg="http://www.w3.org/2000/svg">
  <defs
     id="defs1" />
  <g
     id="g1"
     transform="translate(-65.866578,-135.84981)">
    <rect
       style="fill:none;stroke-width:0.703482"
       id="rect1"
       width="755.81897"
       height="256.05627"
       x="65.866577"
       y="135.84981" />
    <g
       id="g968"
       transform="translate(16.466643,149.23759)">
      <path
         id="path1"
         d="m 97.375,65.527 c 0,11.602 -9.82,21.008 -21.937,21.008 -12.114,0 -21.938,-9.406 -21.938,-21.008 0,-11.601 9.824,-21.004 21.938,-21.004 12.117,0 21.937,9.403 21.937,21.004 z"
         style="fill:#bfbfbf;fill-opacity:1;fill-rule:nonzero;stroke:#bfbfbf;stroke-width:1.25776;stroke-linecap:butt;stroke-linejoin:miter;stroke-miterlimit:4;stroke-dasharray:none;stroke-opacity:1;paint-order:stroke fill markers"
         transform="scale(1.3333333)" />
      <text
         id="text1"
         xml:space="preserve"
         transform="matrix(1.3333333,0,0,1.3333333,92.409271,96.896357)"><tspan
           style="font-variant:normal;font-weight:normal;font-size:23.6294px;font-family:'Times New Roman';writing-mode:lr-tb;fill:#ffffff;fill-opacity:1;fill-rule:nonzero;stroke:none"
           x="0"
           y="0"
           id="tspan1">S</tspan></text>
      <path
         id="path2"
         d="m 216.336,67.438 c 0,11.601 -9.824,21.003 -21.938,21.003 -12.117,0 -21.937,-9.402 -21.937,-21.003 0,-11.602 9.82,-21.008 21.937,-21.008 12.114,0 21.938,9.406 21.938,21.008 z"
         style="fill:#eb4740;fill-opacity:1;fill-rule:nonzero;stroke:#eb4740;stroke-width:1.25776;stroke-linecap:butt;stroke-linejoin:miter;stroke-miterlimit:4;stroke-dasharray:none;stroke-opacity:1;paint-order:stroke fill markers"
         transform="scale(1.3333333)" />
      <text
         id="text2"
         xml:space="preserve"
         transform="matrix(1.3333333,0,0,1.3333333,253.90971,100.14976)"><tspan
           style="font-variant:normal;font-weight:normal;font-size:23.6294px;font-family:'Times New Roman';writing-mode:lr-tb;fill:#ffffee;fill-opacity:1;fill-rule:nonzero;stroke:none"
           x="0"
           y="0"
           id="tspan2">I</tspan></text>
      <path
         id="path3"
         d="m 155.715,147.109 c 0,11.602 -9.82,21.008 -21.938,21.008 -12.113,0 -21.937,-9.406 -21.937,-21.008 0,-11.601 9.824,-21.007 21.937,-21.007 12.118,0 21.938,9.406 21.938,21.007 z"
         style="fill:#4d4df5;fill-opacity:1;fill-rule:nonzero;stroke:#4d4df5;stroke-width:1.25776;stroke-linecap:butt;stroke-linejoin:miter;stroke-miterlimit:4;stroke-dasharray:none;stroke-opacity:1;paint-order:stroke fill markers"
         transform="scale(1.3333333)" />
      <text
         id="text3"
         xml:space="preserve"
         transform="matrix(1.3333333,0,0,1.3333333,169.06142,206.32998)"><tspan
           style="font-variant:normal;font-weight:normal;font-size:23.6294px;font-family:'Times New Roman';writing-mode:lr-tb;fill:#ffffff;fill-opacity:1;fill-rule:nonzero;stroke:none"
           x="0"
           y="0"
           id="tspan3">R</tspan></text>
      <path
         id="path4"
         d="m 182.004,86.598 -30.027,42.043"
         style="fill:none;stroke:#000000;stroke-width:1.32547;stroke-linecap:butt;stroke-linejoin:miter;stroke-miterlimit:4;stroke-dasharray:none;stroke-opacity:1"
         transform="scale(1.3333333)" />
      <path
         id="path5"
         d="m 154.637,129.059 -5.813,3.992 1.891,-6.793 c 0.441,1.797 2.074,2.965 3.922,2.801 z"
         style="fill:#000000;fill-opacity:1;fill-rule:evenodd;stroke:none"
         transform="scale(1.3333333)" />
      <path
         id="path6"
         d="M 118.719,129.633 88.695,87.59"
         style="fill:none;stroke:#000000;stroke-width:1.32547;stroke-linecap:butt;stroke-linejoin:miter;stroke-miterlimit:4;stroke-dasharray:none;stroke-opacity:1"
         transform="scale(1.3333333)" />
      <path
         id="path7"
         d="m 87.434,89.973 -1.891,-6.793 5.812,3.992 c -1.843,-0.168 -3.476,1 -3.921,2.801 z"
         style="fill:#000000;fill-opacity:1;fill-rule:evenodd;stroke:none"
         transform="scale(1.3333333)" />
      <path
         id="path8"
         d="m 177.195,113.34 c 0.711,-2.082 2.707,-2.11 2.907,-2.11 2.734,0 2.933,3.192 2.933,4.618 0,1.113 -0.082,1.425 -0.226,1.797 -0.399,1.312 -0.942,3.421 -0.942,3.906 0,0.199 0.086,0.312 0.231,0.312 0.254,0 0.398,-0.398 0.597,-1.082 0.426,-1.539 0.598,-2.566 0.657,-3.136 0.054,-0.227 0.086,-0.457 0.171,-0.715 0.567,-1.793 1.739,-4.5 2.45,-5.926 0.144,-0.231 0.343,-0.629 0.343,-0.715 0,-0.172 -0.171,-0.172 -0.199,-0.172 -0.058,0 -0.172,0 -0.23,0.117 -0.942,1.739 -1.68,3.563 -2.395,5.387 -0.027,-0.543 -0.027,-1.937 -0.742,-3.707 -0.453,-1.109 -1.168,-1.996 -2.422,-1.996 -2.281,0 -3.562,2.766 -3.562,3.336 0,0.172 0.172,0.172 0.371,0.172 z"
         style="fill:#000000;fill-opacity:1;fill-rule:nonzero;stroke:none"
         transform="scale(1.3333333)" />
      <path
         id="path9"
         d="m 94.324,116.449 c -2.25,0.543 -4.019,2.91 -4.019,5.102 0,1.769 1.168,3.078 2.879,3.078 2.109,0 3.621,-2.879 3.621,-5.387 0,-1.652 -0.711,-2.562 -1.34,-3.363 -0.656,-0.824 -1.738,-2.195 -1.738,-2.992 0,-0.399 0.371,-0.828 0.996,-0.828 0.57,0 0.914,0.23 1.312,0.488 0.371,0.226 0.711,0.453 0.996,0.453 0.457,0 0.715,-0.426 0.715,-0.738 0,-0.403 -0.285,-0.43 -0.941,-0.602 -0.942,-0.199 -1.196,-0.199 -1.481,-0.199 -1.426,0 -2.082,0.801 -2.082,1.883 0,0.996 0.543,1.996 1.082,3.105 z m 0.231,0.399 c 0.453,0.855 0.996,1.824 0.996,3.136 0,1.2 -0.684,4.246 -2.367,4.246 -0.996,0 -1.766,-0.769 -1.766,-2.164 0,-1.14 0.684,-4.562 3.137,-5.218 z"
         style="fill:#000000;fill-opacity:1;fill-rule:nonzero;stroke:none"
         transform="scale(1.3333333)" />
      <path
         id="path10"
         d="m 121.094,28.816 c 0,0 0,-0.199 -0.227,-0.199 -0.398,0 -1.738,0.145 -2.222,0.199 -0.145,0 -0.344,0.032 -0.344,0.344 0,0.227 0.172,0.227 0.457,0.227 0.855,0 0.883,0.117 0.883,0.316 0,0.113 -0.141,0.738 -0.227,1.109 l -1.512,5.93 c -0.199,0.914 -0.285,1.227 -0.285,1.852 0,1.711 0.969,2.851 2.309,2.851 2.136,0 4.39,-2.707 4.39,-5.332 0,-1.652 -0.968,-2.906 -2.425,-2.906 -0.825,0 -1.594,0.543 -2.137,1.082 z m -1.68,6.872 c 0.086,-0.399 0.086,-0.426 0.254,-0.626 0.887,-1.171 1.711,-1.457 2.195,-1.457 0.657,0 1.141,0.543 1.141,1.711 0,1.082 -0.598,3.164 -0.942,3.848 -0.597,1.227 -1.425,1.883 -2.136,1.883 -0.629,0 -1.227,-0.485 -1.227,-1.824 0,-0.371 0,-0.715 0.285,-1.852 z"
         style="fill:#000000;fill-opacity:1;fill-rule:nonzero;stroke:none"
         transform="scale(1.3333333)" />
      <path
         id="path11"
         d="m 124.934,44.238 c -0.028,0.028 -0.086,0.258 -0.086,0.285 0,0.258 0.285,0.258 0.457,0.258 0.34,0 0.34,-0.058 0.453,-0.429 0.058,-0.286 1.14,-4.645 1.172,-4.704 0.769,1.286 2.164,1.825 3.617,1.825 3.648,0 5.703,-2.793 5.703,-5.188 0,-1.254 -0.57,-1.937 -1.168,-2.394 0.652,-0.571 1.395,-1.739 1.395,-2.993 0,-1.539 -1.141,-2.421 -2.852,-2.421 -2.594,0 -5.273,2.023 -5.926,4.644 z m 8.238,-10.289 c -0.457,0.313 -0.887,0.313 -1.141,0.313 -0.086,0 -0.883,0 -0.883,-0.141 0,-0.285 0.883,-0.285 1.137,-0.285 0.317,0 0.543,0 0.887,0.113 z m 0.598,-0.629 c -0.598,-0.14 -1.082,-0.14 -1.454,-0.14 -0.57,0 -2.054,0 -2.054,0.968 0,0.77 1.113,0.77 1.738,0.77 0.316,0 1.113,0 1.941,-0.344 0.141,0.258 0.2,0.629 0.2,0.942 0,0.656 -0.457,2.851 -1.028,3.793 -0.57,0.91 -1.453,1.511 -2.593,1.511 -1.711,0 -3.106,-1.027 -3.106,-2.652 0,-0.371 0.086,-0.77 0.113,-0.941 0.285,-1.082 0.856,-3.45 1.082,-4.247 0.571,-1.996 2.766,-3.847 4.934,-3.847 0.684,0 1.082,0.34 1.082,1.023 0,0.571 -0.43,2.453 -0.855,3.164 z"
         style="fill:#000000;fill-opacity:1;fill-rule:nonzero;stroke:none"
         transform="scale(1.3333333)" />
      <path
         id="path12"
         d="m 144.066,45.352 c -0.539,-0.516 -1.711,-1.625 -2.48,-3.934 -0.484,-1.453 -0.684,-3.109 -0.684,-4.734 0,-3.563 0.914,-6.411 2.938,-8.434 0.258,-0.285 0.285,-0.285 0.285,-0.402 0,-0.2 -0.199,-0.254 -0.344,-0.254 -0.312,0 -1.054,0.683 -1.394,0.996 -2.825,2.82 -3.25,6.156 -3.25,8.094 0,2.281 0.597,4.277 1.453,5.789 1.199,2.078 2.851,3.304 3.191,3.304 0.145,0 0.344,-0.054 0.344,-0.254 0,-0.085 -0.059,-0.171 -0.059,-0.171 z"
         style="fill:#000000;fill-opacity:1;fill-rule:nonzero;stroke:none"
         transform="scale(1.3333333)" />
      <path
         id="path13"
         d="m 147.18,34.035 v 4.988 c 0,1.938 1.566,2.336 2.879,2.336 1.367,0 2.191,-1.054 2.191,-2.367 v -0.969 h -0.852 v 0.942 c 0,1.226 -0.601,1.652 -1.113,1.652 -1.055,0 -1.055,-1.168 -1.055,-1.566 v -5.016 h 2.68 V 33.18 h -2.68 v -3.477 h -0.855 c 0,1.824 -0.883,3.617 -2.707,3.676 v 0.656 z"
         style="fill:#000000;fill-opacity:1;fill-rule:nonzero;stroke:none"
         transform="scale(1.3333333)" />
      <path
         id="path14"
         d="m 159.582,36.684 c 0,-2.25 -0.598,-4.246 -1.453,-5.758 -1.227,-2.11 -2.879,-3.332 -3.223,-3.332 -0.14,0 -0.312,0.054 -0.312,0.254 0,0.117 0,0.144 0.312,0.429 2.282,2.336 2.91,5.559 2.91,8.407 0,3.593 -0.941,6.445 -2.937,8.468 -0.285,0.254 -0.285,0.286 -0.285,0.371 0,0.2 0.172,0.254 0.312,0.254 0.317,0 1.086,-0.683 1.399,-0.996 2.851,-2.793 3.277,-6.156 3.277,-8.097 z"
         style="fill:#000000;fill-opacity:1;fill-rule:nonzero;stroke:none"
         transform="scale(1.3333333)" />
      <path
         id="path15"
         d="m 99.066,66.371 c 0.829,2.176 1.657,4.348 2.485,6.32 0.828,1.973 1.656,3.743 2.484,5.149 0.828,1.406 1.656,2.449 2.485,3.031 0.828,0.582 1.656,0.699 2.484,0.348 0.828,-0.352 1.656,-1.176 2.484,-2.395 0.828,-1.219 1.657,-2.832 2.485,-4.695 0.828,-1.863 1.656,-3.969 2.484,-6.129 0.828,-2.16 1.656,-4.371 2.484,-6.434 0.829,-2.058 1.657,-3.964 2.485,-5.543 0.828,-1.578 1.656,-2.824 2.484,-3.628 0.828,-0.805 1.656,-1.165 2.485,-1.047 0.828,0.117 1.656,0.714 2.484,1.73 0.828,1.02 1.656,2.457 2.484,4.188 0.828,1.73 1.657,3.75 2.485,5.871 0.828,2.125 1.656,4.347 2.484,6.468 0.828,2.125 1.656,4.141 2.484,5.872 0.829,1.73 1.657,3.171 2.485,4.187 0.828,1.02 1.656,1.613 2.484,1.731 0.828,0.121 1.656,-0.243 2.485,-1.047 0.828,-0.801 1.656,-2.051 2.484,-3.629 0.828,-1.578 1.656,-3.485 2.484,-5.543 0.828,-2.059 1.657,-4.27 2.485,-6.43 0.828,-2.16 1.656,-4.269 2.484,-6.133 0.828,-1.859 1.656,-3.476 2.484,-4.695 0.829,-1.219 1.657,-2.043 2.485,-2.395 0.828,-0.351 1.656,-0.23 2.484,0.352 0.828,0.582 1.656,1.621 2.485,3.031 0.828,1.406 1.656,3.176 2.484,5.149 0.828,1.972 1.656,4.144 2.484,6.316"
         style="fill:none;stroke:#000000;stroke-width:1.23055;stroke-linecap:round;stroke-linejoin:bevel;stroke-miterlimit:3.4;stroke-dasharray:none;stroke-opacity:1"
         transform="scale(1.3333333)" />
      <path
         id="path16"
         d="m 173.102,64.211 0.113,7.68 -5.02,-5.809 c 1.895,0.68 3.938,-0.098 4.907,-1.871 z"
         style="fill:#000000;fill-opacity:1;fill-rule:evenodd;stroke:none"
         transform="scale(1.3333333)" />
    </g>
    <g
       id="g967"
       transform="translate(5.7633253,144.90646)">
      <text
         id="text845"
         xml:space="preserve"
         x="543.2345"
         y="19.873468"
         style="font-size:16px;stroke-width:1.33333"><tspan
           style="font-variant:normal;font-weight:700;font-size:13.2803px;font-family:Verdana;writing-mode:lr-tb;fill:#ffd966;fill-opacity:1;fill-rule:nonzero;stroke:none;stroke-width:1.33333"
           x="543.2345 552.69537 561.81262 571.27356 577.64783 586.51862 595.80444 605.26532 614.08429 620.68555 629.50446"
           y="19.873468"
           id="tspan845">non-adherer</tspan></text>
      <text
         id="text846"
         xml:space="preserve"
         x="443.64539"
         y="20.065258"
         style="font-size:16px;stroke-width:1.33333"><tspan
           style="font-variant:normal;font-weight:700;font-size:13.3333px;font-family:Verdana;writing-mode:lr-tb;fill:#7030a1;fill-opacity:1;fill-rule:nonzero;stroke:none;stroke-width:1.33333"
           x="443.64539 452.55164 461.87454 471.37323 480.22739 486.85498 495.70914"
           y="20.065258"
           id="tspan846">adherer</tspan></text>
      <path
         id="path847"
         d="m 462.07851,194.07629 c 0,1.33867 -1.084,2.42134 -2.42667,2.42134 -1.33867,0 -2.428,-1.08267 -2.428,-2.42134 0,-1.33866 1.08933,-2.42266 2.428,-2.42266 1.34267,0 2.42667,1.084 2.42667,2.42266 z"
         style="fill:#ffd966;fill-opacity:1;fill-rule:nonzero;stroke:#000000;stroke-width:0.377952;stroke-linecap:butt;stroke-linejoin:miter;stroke-miterlimit:4;stroke-dasharray:none;stroke-opacity:1" />
      <path
         id="path848"
         d="m 456.78117,219.65896 c 0,0.73467 0.60934,1.33867 1.36,1.33867 0.75467,0 1.364,-0.59867 1.364,-1.33867 v -11.24933 h 0.60934 l -0.005,11.24933 c 0,0.73467 0.60934,1.33867 1.36,1.33867 0.74934,0 1.35867,-0.59867 1.35867,-1.33867 l 0.0107,-19.396 h 0.59466 v 7.14667 c 0,1.44266 1.90534,1.44266 1.9,0 v -7.29734 c 0,-1.588 -0.948,-3.14 -2.83333,-3.14 l -5.44267,-0.0107 c -1.71866,0 -2.796,1.38 -2.796,3.104 v 7.344 c 0,1.432 1.916,1.432 1.916,0 v -7.14667 h 0.60934 z"
         style="fill:#ffd966;fill-opacity:1;fill-rule:nonzero;stroke:#000000;stroke-width:0.377952;stroke-linecap:butt;stroke-linejoin:miter;stroke-miterlimit:10;stroke-dasharray:none;stroke-opacity:1" />
      <path
         id="path849"
         d="m 411.84384,194.08696 c 0,1.33733 -1.088,2.42133 -2.432,2.42133 -1.33867,0 -2.42667,-1.084 -2.42667,-2.42133 0,-1.33867 1.088,-2.42267 2.42667,-2.42267 1.344,0 2.432,1.084 2.432,2.42267 z"
         style="fill:#ffd966;fill-opacity:1;fill-rule:nonzero;stroke:#000000;stroke-width:0.377952;stroke-linecap:butt;stroke-linejoin:miter;stroke-miterlimit:4;stroke-dasharray:none;stroke-opacity:1" />
      <path
         id="path850"
         d="m 406.54251,219.66963 c 0,0.73466 0.60933,1.33866 1.35866,1.33866 0.756,0 1.36534,-0.59866 1.36534,-1.33866 v -11.24934 h 0.60933 l -0.005,11.24934 c 0,0.73466 0.60933,1.33866 1.35866,1.33866 0.75067,0 1.36,-0.59866 1.36,-1.33866 l 0.0107,-19.396 h 0.59867 v 7.14666 c 0,1.44267 1.90133,1.44267 1.896,0 v -7.29733 c 0,-1.58933 -0.948,-3.14133 -2.83334,-3.14133 l -5.44266,-0.009 c -1.71867,0 -2.792,1.38 -2.792,3.104 v 7.344 c 0,1.432 1.91066,1.432 1.91066,0 v -7.14666 h 0.61067 z"
         style="fill:#ffd966;fill-opacity:1;fill-rule:nonzero;stroke:#000000;stroke-width:0.377952;stroke-linecap:butt;stroke-linejoin:miter;stroke-miterlimit:10;stroke-dasharray:none;stroke-opacity:1" />
      <path
         id="path851"
         d="m 478.42251,194.04429 c 0,1.33867 -1.084,2.428 -2.428,2.428 -1.33734,0 -2.42667,-1.08933 -2.42667,-2.428 0,-1.33333 1.08933,-2.42133 2.42667,-2.42133 1.344,0 2.428,1.088 2.428,2.42133 z"
         style="fill:#ffd966;fill-opacity:1;fill-rule:nonzero;stroke:#000000;stroke-width:0.377952;stroke-linecap:butt;stroke-linejoin:miter;stroke-miterlimit:4;stroke-dasharray:none;stroke-opacity:1" />
      <path
         id="path852"
         d="m 473.12517,219.62829 c 0,0.74 0.60934,1.344 1.36,1.344 0.75467,0 1.364,-0.6 1.364,-1.344 v -11.24533 h 0.60934 l -0.005,11.24533 c 0,0.74 0.60934,1.344 1.36,1.344 0.74934,0 1.35867,-0.6 1.35867,-1.344 l 0.0107,-19.39066 h 0.59333 v 7.14533 c 0,1.43733 1.90667,1.43733 1.90133,0 v -7.296 c 0,-1.58933 -0.948,-3.14667 -2.83333,-3.14667 l -5.44267,-0.005 c -1.71866,0 -2.79733,1.38 -2.79733,3.104 v 7.344 c 0,1.428 1.91733,1.428 1.91733,0 v -7.14533 h 0.60934 z"
         style="fill:#ffd966;fill-opacity:1;fill-rule:nonzero;stroke:#000000;stroke-width:0.377952;stroke-linecap:butt;stroke-linejoin:miter;stroke-miterlimit:10;stroke-dasharray:none;stroke-opacity:1" />
      <path
         id="path853"
         d="m 395.31851,193.87229 c 0,1.33867 -1.08934,2.42267 -2.43334,2.42267 -1.33733,0 -2.42666,-1.084 -2.42666,-2.42267 0,-1.33333 1.08933,-2.42133 2.42666,-2.42133 1.344,0 2.43334,1.088 2.43334,2.42133 z"
         style="fill:#ffd966;fill-opacity:1;fill-rule:nonzero;stroke:#000000;stroke-width:0.377952;stroke-linecap:butt;stroke-linejoin:miter;stroke-miterlimit:4;stroke-dasharray:none;stroke-opacity:1" />
      <path
         id="path854"
         d="m 390.01584,219.45629 c 0,0.74 0.61467,1.344 1.364,1.344 0.75067,0 1.36,-0.604 1.36,-1.344 v -11.25066 h 0.60933 l -0.005,11.25066 c 0,0.74 0.60933,1.344 1.36,1.344 0.74933,0 1.35867,-0.604 1.35867,-1.344 l 0.0107,-19.39066 h 0.59867 v 7.14533 c 0,1.43733 1.90133,1.43733 1.896,0 v -7.30133 c 0,-1.584 -0.94267,-3.14134 -2.83333,-3.14134 l -5.44267,-0.005 c -1.71867,0 -2.792,1.38133 -2.792,3.104 v 7.344 c 0,1.428 1.912,1.428 1.912,0 v -7.15067 h 0.60933 z"
         style="fill:#ffd966;fill-opacity:1;fill-rule:nonzero;stroke:#000000;stroke-width:0.377952;stroke-linecap:butt;stroke-linejoin:miter;stroke-miterlimit:10;stroke-dasharray:none;stroke-opacity:1" />
      <path
         id="path855"
         d="m 444.70384,194.04429 c 0,1.33867 -1.084,2.42267 -2.428,2.42267 -1.33867,0 -2.42667,-1.084 -2.42667,-2.42267 0,-1.33866 1.088,-2.42133 2.42667,-2.42133 1.344,0 2.428,1.08267 2.428,2.42133 z"
         style="fill:#ffd966;fill-opacity:1;fill-rule:nonzero;stroke:#000000;stroke-width:0.377952;stroke-linecap:butt;stroke-linejoin:miter;stroke-miterlimit:4;stroke-dasharray:none;stroke-opacity:1" />
      <path
         id="path856"
         d="m 439.40651,219.62829 c 0,0.74 0.60933,1.33867 1.36,1.33867 0.75466,0 1.364,-0.59867 1.364,-1.33867 v -11.25066 h 0.60933 l -0.005,11.25066 c 0,0.74 0.60933,1.33867 1.36,1.33867 0.74933,0 1.35866,-0.59867 1.35866,-1.33867 l 0.0107,-19.396 h 0.59333 v 7.15067 c 0,1.43733 1.90667,1.43733 1.90134,0 v -7.30133 c 0,-1.58934 -0.948,-3.14134 -2.83334,-3.14134 l -5.44266,-0.0107 c -1.71867,0 -2.79734,1.38533 -2.79734,3.10933 v 7.344 c 0,1.428 1.91734,1.428 1.91734,0 v -7.15067 h 0.60933 z"
         style="fill:#ffd966;fill-opacity:1;fill-rule:nonzero;stroke:#000000;stroke-width:0.377952;stroke-linecap:butt;stroke-linejoin:miter;stroke-miterlimit:10;stroke-dasharray:none;stroke-opacity:1" />
      <path
         id="path857"
         d="m 428.17717,193.83629 c 0,1.33334 -1.08266,2.42134 -2.42666,2.42134 -1.33867,0 -2.42667,-1.088 -2.42667,-2.42134 0,-1.33866 1.088,-2.42133 2.42667,-2.42133 1.344,0 2.42666,1.08267 2.42666,2.42133 z"
         style="fill:#ffd966;fill-opacity:1;fill-rule:nonzero;stroke:#000000;stroke-width:0.377952;stroke-linecap:butt;stroke-linejoin:miter;stroke-miterlimit:4;stroke-dasharray:none;stroke-opacity:1" />
      <path
         id="path858"
         d="m 422.88117,219.41496 c 0,0.73867 0.60934,1.34267 1.35867,1.34267 0.75467,0 1.364,-0.59867 1.364,-1.34267 v -11.24533 h 0.61067 l -0.005,11.24533 c 0,0.73867 0.60934,1.34267 1.35867,1.34267 0.75067,0 1.36,-0.59867 1.36,-1.34267 l 0.009,-19.39067 h 0.6 v 7.14534 c 0,1.43733 1.9,1.43733 1.896,0 v -7.29734 c 0,-1.588 -0.948,-3.14533 -2.83333,-3.14533 l -5.44267,-0.005 c -1.72,0 -2.79733,1.38 -2.79733,3.104 v 7.344 c 0,1.42666 1.916,1.42666 1.916,0 v -7.14534 h 0.60933 z"
         style="fill:#ffd966;fill-opacity:1;fill-rule:nonzero;stroke:#000000;stroke-width:0.377952;stroke-linecap:butt;stroke-linejoin:miter;stroke-miterlimit:10;stroke-dasharray:none;stroke-opacity:1" />
      <path
         id="path859"
         d="m 460.57851,151.18563 c 0,1.33867 -1.088,2.42133 -2.432,2.42133 -1.33867,0 -2.428,-1.08266 -2.428,-2.42133 0,-1.33867 1.08933,-2.42267 2.428,-2.42267 1.344,0 2.432,1.084 2.432,2.42267 z"
         style="fill:#ffd966;fill-opacity:1;fill-rule:nonzero;stroke:#000000;stroke-width:0.377952;stroke-linecap:butt;stroke-linejoin:miter;stroke-miterlimit:4;stroke-dasharray:none;stroke-opacity:1" />
      <path
         id="path860"
         d="m 455.28117,176.76296 c 0,0.74 0.60934,1.344 1.36,1.344 0.74934,0 1.35867,-0.59866 1.35867,-1.344 v -11.244 h 0.60933 l -0.005,11.244 c 0,0.74 0.61067,1.344 1.36,1.344 0.74933,0 1.364,-0.59866 1.364,-1.344 l 0.005,-19.39066 h 0.6 v 7.14666 c 0,1.43734 1.9,1.43734 1.89467,0 v -7.29733 c 0,-1.588 -0.94267,-3.14533 -2.83333,-3.14533 l -5.44267,-0.005 c -1.71867,0 -2.79067,1.38 -2.79067,3.104 v 7.344 c 0,1.42667 1.91067,1.42667 1.91067,0 v -7.14666 h 0.60933 z"
         style="fill:#ffd966;fill-opacity:1;fill-rule:nonzero;stroke:#000000;stroke-width:0.377952;stroke-linecap:butt;stroke-linejoin:miter;stroke-miterlimit:10;stroke-dasharray:none;stroke-opacity:1" />
      <path
         id="path861"
         d="m 410.33851,151.1963 c 0,1.33733 -1.088,2.42133 -2.42667,2.42133 -1.344,0 -2.432,-1.084 -2.432,-2.42133 0,-1.33867 1.088,-2.42267 2.432,-2.42267 1.33867,0 2.42667,1.084 2.42667,2.42267 z"
         style="fill:#ffd966;fill-opacity:1;fill-rule:nonzero;stroke:#000000;stroke-width:0.377952;stroke-linecap:butt;stroke-linejoin:miter;stroke-miterlimit:4;stroke-dasharray:none;stroke-opacity:1" />
      <path
         id="path862"
         d="m 405.04251,176.77363 c 0,0.74 0.60933,1.344 1.35866,1.344 0.75067,0 1.36534,-0.59867 1.36534,-1.344 v -11.244 h 0.604 v 11.244 c 0,0.74 0.60933,1.344 1.35866,1.344 0.75067,0 1.36,-0.59867 1.36,-1.344 l 0.005,-19.39067 h 0.59866 v 7.14667 c 0,1.43733 1.90667,1.43733 1.896,0 v -7.29733 c 0,-1.588 -0.94266,-3.14534 -2.828,-3.14534 l -5.44266,-0.005 c -1.724,0 -2.79734,1.38 -2.79734,3.104 v 7.344 c 0,1.42667 1.916,1.42667 1.916,0 v -7.14667 h 0.60934 z"
         style="fill:#ffd966;fill-opacity:1;fill-rule:nonzero;stroke:#000000;stroke-width:0.377952;stroke-linecap:butt;stroke-linejoin:miter;stroke-miterlimit:10;stroke-dasharray:none;stroke-opacity:1" />
      <path
         id="path863"
         d="m 476.92251,151.15363 c 0,1.33867 -1.08934,2.42267 -2.432,2.42267 -1.33867,0 -2.428,-1.084 -2.428,-2.42267 0,-1.33867 1.08933,-2.42133 2.428,-2.42133 1.34266,0 2.432,1.08266 2.432,2.42133 z"
         style="fill:#ffd966;fill-opacity:1;fill-rule:nonzero;stroke:#000000;stroke-width:0.377952;stroke-linecap:butt;stroke-linejoin:miter;stroke-miterlimit:4;stroke-dasharray:none;stroke-opacity:1" />
      <path
         id="path864"
         d="m 471.62517,176.73763 c 0,0.74 0.60934,1.344 1.36,1.344 0.74934,0 1.35867,-0.604 1.35867,-1.344 v -11.25067 h 0.60933 l -0.005,11.25067 c 0,0.74 0.60933,1.344 1.36,1.344 0.74933,0 1.364,-0.604 1.364,-1.344 l 0.005,-19.39067 h 0.59867 v 7.14534 c 0,1.43733 1.90133,1.43733 1.896,0 v -7.30134 c 0,-1.584 -0.94267,-3.14133 -2.83333,-3.14133 l -5.44267,-0.0107 c -1.71867,0 -2.792,1.38534 -2.792,3.10934 v 7.344 c 0,1.428 1.912,1.428 1.912,0 v -7.15067 h 0.60933 z"
         style="fill:#ffd966;fill-opacity:1;fill-rule:nonzero;stroke:#000000;stroke-width:0.377952;stroke-linecap:butt;stroke-linejoin:miter;stroke-miterlimit:10;stroke-dasharray:none;stroke-opacity:1" />
      <path
         id="path865"
         d="m 393.81317,150.98163 c 0,1.33867 -1.08933,2.42267 -2.428,2.42267 -1.34266,0 -2.42666,-1.084 -2.42666,-2.42267 0,-1.33733 1.084,-2.42133 2.42666,-2.42133 1.33867,0 2.428,1.084 2.428,2.42133 z"
         style="fill:#ffd966;fill-opacity:1;fill-rule:nonzero;stroke:#000000;stroke-width:0.377952;stroke-linecap:butt;stroke-linejoin:miter;stroke-miterlimit:4;stroke-dasharray:none;stroke-opacity:1" />
      <path
         id="path866"
         d="m 388.51584,176.56563 c 0,0.74 0.60933,1.33867 1.36,1.33867 0.75467,0 1.364,-0.59867 1.364,-1.33867 v -11.25067 h 0.604 v 11.25067 c 0,0.74 0.60933,1.33867 1.36,1.33867 0.74933,0 1.35867,-0.59867 1.35867,-1.33867 l 0.005,-19.396 h 0.59867 v 7.15067 c 0,1.43733 1.90666,1.43733 1.90133,0 v -7.30134 c 0,-1.58933 -0.948,-3.14133 -2.83333,-3.14133 l -5.44267,-0.0107 c -1.724,0 -2.79733,1.38134 -2.79733,3.11067 v 7.34267 c 0,1.428 1.91733,1.428 1.91733,0 v -7.15067 h 0.60933 z"
         style="fill:#ffd966;fill-opacity:1;fill-rule:nonzero;stroke:#000000;stroke-width:0.377952;stroke-linecap:butt;stroke-linejoin:miter;stroke-miterlimit:10;stroke-dasharray:none;stroke-opacity:1" />
      <path
         id="path867"
         d="m 443.20384,151.15363 c 0,1.33867 -1.08933,2.42267 -2.43333,2.42267 -1.33734,0 -2.42667,-1.084 -2.42667,-2.42267 0,-1.33867 1.08933,-2.42133 2.42667,-2.42133 1.344,0 2.43333,1.08266 2.43333,2.42133 z"
         style="fill:#ffd966;fill-opacity:1;fill-rule:nonzero;stroke:#000000;stroke-width:0.377952;stroke-linecap:butt;stroke-linejoin:miter;stroke-miterlimit:4;stroke-dasharray:none;stroke-opacity:1" />
      <path
         id="path868"
         d="m 437.90651,176.73763 c 0,0.73467 0.60933,1.33867 1.36,1.33867 0.74933,0 1.35866,-0.59867 1.35866,-1.33867 v -11.25067 h 0.60934 l -0.005,11.25067 c 0,0.73467 0.60934,1.33867 1.36,1.33867 0.74934,0 1.35867,-0.59867 1.35867,-1.33867 l 0.0107,-19.396 h 0.59866 v 7.15067 c 0,1.43733 1.90134,1.43733 1.896,0 v -7.30134 c 0,-1.58933 -0.94266,-3.14133 -2.83333,-3.14133 l -5.44267,-0.0107 c -1.71866,0 -2.792,1.38134 -2.792,3.10934 v 7.33866 c 0,1.43334 1.912,1.43334 1.912,0 v -7.14533 h 0.60934 z"
         style="fill:#ffd966;fill-opacity:1;fill-rule:nonzero;stroke:#000000;stroke-width:0.377952;stroke-linecap:butt;stroke-linejoin:miter;stroke-miterlimit:10;stroke-dasharray:none;stroke-opacity:1" />
      <path
         id="path869"
         d="m 426.67717,150.9403 c 0,1.33866 -1.088,2.42266 -2.42666,2.42266 -1.344,0 -2.432,-1.084 -2.432,-2.42266 0,-1.33334 1.088,-2.42134 2.432,-2.42134 1.33866,0 2.42666,1.088 2.42666,2.42134 z"
         style="fill:#ffd966;fill-opacity:1;fill-rule:nonzero;stroke:#000000;stroke-width:0.377952;stroke-linecap:butt;stroke-linejoin:miter;stroke-miterlimit:4;stroke-dasharray:none;stroke-opacity:1" />
      <path
         id="path870"
         d="m 421.37984,176.5243 c 0,0.73866 0.61067,1.34266 1.36,1.34266 0.75067,0 1.36,-0.604 1.36,-1.34266 v -11.24534 h 0.60933 l -0.005,11.24534 c 0,0.73866 0.61467,1.34266 1.364,1.34266 0.75067,0 1.36,-0.604 1.36,-1.34266 l 0.005,-19.39067 h 0.59867 v 7.14533 c 0,1.43734 1.90533,1.43734 1.896,0 v -7.29733 c 0,-1.588 -0.94267,-3.14533 -2.828,-3.14533 l -5.448,-0.005 c -1.71867,0 -2.792,1.38 -2.792,3.104 v 7.344 c 0,1.42667 1.91067,1.42667 1.91067,0 v -7.15066 h 0.60933 z"
         style="fill:#ffd966;fill-opacity:1;fill-rule:nonzero;stroke:#000000;stroke-width:0.377952;stroke-linecap:butt;stroke-linejoin:miter;stroke-miterlimit:10;stroke-dasharray:none;stroke-opacity:1" />
      <path
         id="path871"
         d="m 393.79717,106.75763 c 0,1.344 -1.09333,2.43333 -2.43733,2.43333 -1.34933,0 -2.43733,-1.08933 -2.43733,-2.43333 0,-1.34267 1.088,-2.432 2.43733,-2.432 1.344,0 2.43733,1.08933 2.43733,2.432 z"
         style="fill:#7030a1;fill-opacity:1;fill-rule:nonzero;stroke:#000000;stroke-width:0.377952;stroke-linecap:butt;stroke-linejoin:miter;stroke-miterlimit:4;stroke-dasharray:none;stroke-opacity:1" />
      <path
         id="path872"
         d="m 388.47984,132.4403 c 0,0.74 0.60933,1.34933 1.364,1.34933 0.756,0 1.37067,-0.604 1.37067,-1.34933 v -11.292 h 0.60933 l -0.005,11.292 c 0,0.74 0.61466,1.34933 1.364,1.34933 0.75466,0 1.36533,-0.604 1.36533,-1.34933 l 0.009,-19.468 h 0.6 v 7.172 c 0,1.44666 1.91067,1.44666 1.90534,0 v -7.32934 c 0,-1.59333 -0.948,-3.15066 -2.844,-3.15066 l -5.46267,-0.0107 c -1.72933,0 -2.808,1.38533 -2.808,3.12 v 7.37067 c 0,1.43733 1.92267,1.43733 1.92267,0 v -7.172 h 0.61466 z"
         style="fill:#7030a1;fill-opacity:1;fill-rule:nonzero;stroke:#000000;stroke-width:0.377952;stroke-linecap:butt;stroke-linejoin:miter;stroke-miterlimit:10;stroke-dasharray:none;stroke-opacity:1" />
      <path
         id="path873"
         d="m 428.20917,106.72696 c 0,1.344 -1.09466,2.432 -2.44266,2.432 -1.344,0 -2.43867,-1.088 -2.43867,-2.432 0,-1.344 1.09467,-2.432 2.43867,-2.432 1.348,0 2.44266,1.088 2.44266,2.432 z"
         style="fill:#7030a1;fill-opacity:1;fill-rule:nonzero;stroke:#000000;stroke-width:0.377952;stroke-linecap:butt;stroke-linejoin:miter;stroke-miterlimit:4;stroke-dasharray:none;stroke-opacity:1" />
      <path
         id="path874"
         d="m 422.88517,132.40963 c 0,0.744 0.61467,1.348 1.36534,1.348 0.76,0 1.36933,-0.604 1.36933,-1.348 v -11.292 h 0.60933 v 11.292 c 0,0.744 0.60934,1.348 1.36534,1.348 0.74933,0 1.364,-0.604 1.364,-1.348 l 0.005,-19.46933 h 0.604 v 7.17733 c 0,1.44267 1.912,1.44267 1.90667,0 v -7.328 c 0,-1.59333 -0.95334,-3.156 -2.844,-3.156 l -5.46934,-0.0107 c -1.724,0 -2.80133,1.39067 -2.80133,3.12 v 7.37467 c 0,1.432 1.92133,1.432 1.92133,0 v -7.17733 h 0.60934 z"
         style="fill:#7030a1;fill-opacity:1;fill-rule:nonzero;stroke:#000000;stroke-width:0.377952;stroke-linecap:butt;stroke-linejoin:miter;stroke-miterlimit:10;stroke-dasharray:none;stroke-opacity:1" />
      <path
         id="path875"
         d="m 412.14117,105.94563 c 0,1.33867 -1.084,2.42267 -2.428,2.42267 -1.33733,0 -2.42666,-1.084 -2.42666,-2.42267 0,-1.33867 1.08933,-2.42133 2.42666,-2.42133 1.344,0 2.428,1.08266 2.428,2.42133 z"
         style="fill:#ffd966;fill-opacity:1;fill-rule:nonzero;stroke:#000000;stroke-width:0.377952;stroke-linecap:butt;stroke-linejoin:miter;stroke-miterlimit:4;stroke-dasharray:none;stroke-opacity:1" />
      <path
         id="path876"
         d="m 406.84384,131.5243 c 0,0.73866 0.60933,1.34266 1.36,1.34266 0.75467,0 1.364,-0.59866 1.364,-1.34266 v -11.24534 h 0.60933 l -0.005,11.24534 c 0,0.73866 0.60933,1.34266 1.36,1.34266 0.74933,0 1.35867,-0.59866 1.35867,-1.34266 l 0.0107,-19.39067 h 0.59867 v 7.14533 c 0,1.43734 1.90133,1.43734 1.896,0 v -7.29733 c 0,-1.588 -0.948,-3.14533 -2.83333,-3.14533 l -5.44267,-0.005 c -1.71867,0 -2.792,1.38 -2.792,3.104 v 7.344 c 0,1.42667 1.912,1.42667 1.912,0 v -7.14533 h 0.60933 z"
         style="fill:#ffd966;fill-opacity:1;fill-rule:nonzero;stroke:#000000;stroke-width:0.377952;stroke-linecap:butt;stroke-linejoin:miter;stroke-miterlimit:10;stroke-dasharray:none;stroke-opacity:1" />
      <path
         id="path877"
         d="m 460.43317,106.13363 c 0,1.33867 -1.08933,2.42133 -2.428,2.42133 -1.344,0 -2.42666,-1.08266 -2.42666,-2.42133 0,-1.33867 1.08266,-2.42267 2.42666,-2.42267 1.33867,0 2.428,1.084 2.428,2.42267 z"
         style="fill:#ffd966;fill-opacity:1;fill-rule:nonzero;stroke:#000000;stroke-width:0.377952;stroke-linecap:butt;stroke-linejoin:miter;stroke-miterlimit:4;stroke-dasharray:none;stroke-opacity:1" />
      <path
         id="path878"
         d="m 455.13584,131.7163 c 0,0.73466 0.60933,1.33866 1.35867,1.33866 0.756,0 1.36533,-0.59866 1.36533,-1.33866 v -11.24934 h 0.604 v 11.24934 c 0,0.73466 0.60933,1.33866 1.36,1.33866 0.74933,0 1.35867,-0.59866 1.35867,-1.33866 l 0.005,-19.396 h 0.59867 v 7.14666 c 0,1.43734 1.90666,1.43734 1.90133,0 v -7.29733 c 0,-1.588 -0.948,-3.14533 -2.83333,-3.14533 l -5.44267,-0.005 c -1.71867,0 -2.79733,1.38 -2.79733,3.104 v 7.344 c 0,1.42667 1.91733,1.42667 1.91733,0 v -7.14666 h 0.60933 z"
         style="fill:#ffd966;fill-opacity:1;fill-rule:nonzero;stroke:#000000;stroke-width:0.377952;stroke-linecap:butt;stroke-linejoin:miter;stroke-miterlimit:10;stroke-dasharray:none;stroke-opacity:1" />
      <path
         id="path879"
         d="m 444.42251,105.91496 c 0,1.33867 -1.08934,2.42134 -2.428,2.42134 -1.34267,0 -2.42667,-1.08267 -2.42667,-2.42134 0,-1.33333 1.084,-2.42266 2.42667,-2.42266 1.33866,0 2.428,1.08933 2.428,2.42266 z"
         style="fill:#ffd966;fill-opacity:1;fill-rule:nonzero;stroke:#000000;stroke-width:0.377952;stroke-linecap:butt;stroke-linejoin:miter;stroke-miterlimit:4;stroke-dasharray:none;stroke-opacity:1" />
      <path
         id="path880"
         d="m 439.12517,131.49763 c 0,0.74 0.60934,1.344 1.36,1.344 0.75467,0 1.364,-0.604 1.364,-1.344 V 120.2483 h 0.60934 l -0.005,11.24933 c 0,0.74 0.60934,1.344 1.36,1.344 0.74934,0 1.35867,-0.604 1.35867,-1.344 l 0.005,-19.39067 h 0.59867 v 7.14667 c 0,1.43733 1.90667,1.43733 1.90133,0 v -7.30267 c 0,-1.58266 -0.948,-3.14 -2.83333,-3.14 l -5.44267,-0.005 c -1.71866,0 -2.79733,1.38 -2.79733,3.104 v 7.344 c 0,1.42667 1.91733,1.42667 1.91733,0 v -7.152 h 0.60934 z"
         style="fill:#ffd966;fill-opacity:1;fill-rule:nonzero;stroke:#000000;stroke-width:0.377952;stroke-linecap:butt;stroke-linejoin:miter;stroke-miterlimit:10;stroke-dasharray:none;stroke-opacity:1" />
      <path
         id="path881"
         d="m 475.18784,106.2323 c 0,1.344 -1.09333,2.432 -2.43733,2.432 -1.34934,0 -2.44267,-1.088 -2.44267,-2.432 0,-1.344 1.09333,-2.432 2.44267,-2.432 1.344,0 2.43733,1.088 2.43733,2.432 z"
         style="fill:#7030a1;fill-opacity:1;fill-rule:nonzero;stroke:#000000;stroke-width:0.377952;stroke-linecap:butt;stroke-linejoin:miter;stroke-miterlimit:4;stroke-dasharray:none;stroke-opacity:1" />
      <path
         id="path882"
         d="m 469.86517,131.9203 c 0,0.73866 0.61467,1.34266 1.36934,1.34266 0.756,0 1.36533,-0.59866 1.36533,-1.34266 v -11.29734 h 0.61467 l -0.005,11.29734 c 0,0.73866 0.60934,1.34266 1.364,1.34266 0.75467,0 1.364,-0.59866 1.364,-1.34266 l 0.0107,-19.47467 h 0.6 v 7.17733 c 0,1.44267 1.91067,1.44267 1.90533,0 v -7.328 c 0,-1.59333 -0.95333,-3.156 -2.844,-3.156 l -5.468,-0.005 c -1.724,0 -2.80266,1.38533 -2.80266,3.11467 v 7.37466 c 0,1.432 1.92266,1.432 1.92266,0 v -7.17733 h 0.60934 z"
         style="fill:#7030a1;fill-opacity:1;fill-rule:nonzero;stroke:#000000;stroke-width:0.377952;stroke-linecap:butt;stroke-linejoin:miter;stroke-miterlimit:10;stroke-dasharray:none;stroke-opacity:1" />
      <path
         id="path883"
         d="m 533.58917,2.1802936 c 0,1.312 -1.068,2.374666 -2.38,2.374666 -1.31867,0 -2.38133,-1.062666 -2.38133,-2.374666 0,-1.30800026 1.06266,-2.3693336 2.38133,-2.3693336 1.312,0 2.38,1.06133334 2.38,2.3693336 z"
         style="fill:#ffd966;fill-opacity:1;fill-rule:nonzero;stroke:#000000;stroke-width:0.377951;stroke-linecap:butt;stroke-linejoin:miter;stroke-miterlimit:4;stroke-dasharray:none;stroke-opacity:1" />
      <path
         id="path884"
         d="m 528.39584,27.253625 c 0,0.724 0.59466,1.317334 1.328,1.317334 0.74,0 1.33866,-0.589334 1.33866,-1.317334 V 16.232292 h 0.59467 v 11.021333 c 0,0.724 0.59867,1.317334 1.33333,1.317334 0.73334,0 1.33334,-0.589334 1.33334,-1.317334 l 0.004,-19.0053314 h 0.584 v 7.0053324 c 0,1.410666 1.86933,1.410666 1.864,0 V 8.0962936 c 0,-1.552 -0.92667,-3.077334 -2.776,-3.077334 l -5.33867,-0.0053 c -1.68133,0 -2.73867,1.349333 -2.73867,3.041333 v 7.1986664 c 0,1.4 1.88,1.4 1.88,0 V 8.2482936 h 0.59334 z"
         style="fill:#ffd966;fill-opacity:1;fill-rule:nonzero;stroke:#000000;stroke-width:0.377951;stroke-linecap:butt;stroke-linejoin:miter;stroke-miterlimit:10;stroke-dasharray:none;stroke-opacity:1" />
      <path
         id="path885"
         d="m 433.56784,1.8882936 c 0,1.317333 -1.07333,2.385333 -2.39067,2.385333 -1.31733,0 -2.39066,-1.068 -2.39066,-2.385333 0,-1.31733356 1.07333,-2.3853336 2.39066,-2.3853336 1.31734,0 2.39067,1.06800004 2.39067,2.3853336 z"
         style="fill:#7030a1;fill-opacity:1;fill-rule:nonzero;stroke:#000000;stroke-width:0.377951;stroke-linecap:butt;stroke-linejoin:miter;stroke-miterlimit:4;stroke-dasharray:none;stroke-opacity:1" />
      <path
         id="path886"
         d="m 428.35451,27.060292 c 0,0.729333 0.59866,1.322667 1.33866,1.322667 0.74,0 1.33867,-0.593334 1.33867,-1.322667 v -11.068 h 0.59867 v 11.068 c 0,0.729333 0.59866,1.322667 1.33333,1.322667 0.74,0 1.33867,-0.593334 1.33867,-1.322667 l 0.0107,-19.0826654 h 0.588 v 7.0359994 c 0,1.410666 1.87467,1.410666 1.86534,0 V 7.8309596 c 0,-1.562666 -0.928,-3.093333 -2.78667,-3.093333 l -5.35467,-0.01067 c -1.692,0 -2.74933,1.36 -2.74933,3.057334 v 7.2239984 c 0,1.406667 1.88,1.406667 1.88,0 V 7.9776236 h 0.604 z"
         style="fill:#7030a1;fill-opacity:1;fill-rule:nonzero;stroke:#000000;stroke-width:0.377951;stroke-linecap:butt;stroke-linejoin:miter;stroke-miterlimit:10;stroke-dasharray:none;stroke-opacity:1" />
      <path
         id="path887"
         d="m 394.40117,54.008291 c 0,1.344 -1.09333,2.432 -2.43733,2.432 -1.34933,0 -2.43733,-1.088 -2.43733,-2.432 0,-1.344 1.088,-2.432 2.43733,-2.432 1.344,0 2.43733,1.088 2.43733,2.432 z"
         style="fill:#7030a1;fill-opacity:1;fill-rule:nonzero;stroke:#000000;stroke-width:0.377952;stroke-linecap:butt;stroke-linejoin:miter;stroke-miterlimit:4;stroke-dasharray:none;stroke-opacity:1" />
      <path
         id="path888"
         d="m 389.08384,79.690957 c 0,0.738667 0.60933,1.348 1.364,1.348 0.756,0 1.37067,-0.604 1.37067,-1.348 V 68.398958 h 0.60933 l -0.005,11.291999 c 0,0.738667 0.61466,1.348 1.364,1.348 0.756,0 1.36533,-0.604 1.36533,-1.348 l 0.009,-19.469332 h 0.6 v 7.177333 c 0,1.442666 1.91067,1.442666 1.90534,0 v -7.328 c 0,-1.598667 -0.948,-3.156 -2.84267,-3.156 l -5.464,-0.01067 c -1.72933,0 -2.808,1.385334 -2.808,3.12 v 7.369333 c 0,1.437334 1.92267,1.437334 1.92267,0 v -7.171999 h 0.61466 z"
         style="fill:#7030a1;fill-opacity:1;fill-rule:nonzero;stroke:#000000;stroke-width:0.377952;stroke-linecap:butt;stroke-linejoin:miter;stroke-miterlimit:10;stroke-dasharray:none;stroke-opacity:1" />
      <path
         id="path889"
         d="m 475.72917,54.044291 c 0,1.338667 -1.09333,2.433334 -2.43733,2.433334 -1.34933,0 -2.44267,-1.094667 -2.44267,-2.433334 0,-1.342666 1.09334,-2.432 2.44267,-2.432 1.344,0 2.43733,1.089334 2.43733,2.432 z"
         style="fill:#7030a1;fill-opacity:1;fill-rule:nonzero;stroke:#000000;stroke-width:0.377952;stroke-linecap:butt;stroke-linejoin:miter;stroke-miterlimit:4;stroke-dasharray:none;stroke-opacity:1" />
      <path
         id="path890"
         d="m 470.40651,79.726957 c 0,0.74 0.61466,1.349334 1.36933,1.349334 0.756,0 1.36533,-0.604 1.36533,-1.349334 V 68.434958 h 0.61467 l -0.005,11.291999 c 0,0.74 0.60933,1.349334 1.364,1.349334 0.756,0 1.36533,-0.604 1.36533,-1.349334 l 0.0107,-19.469332 h 0.59866 v 7.171999 c 0,1.448 1.91067,1.448 1.90534,0 v -7.327999 c 0,-1.593334 -0.952,-3.156 -2.84267,-3.156 l -5.46933,-0.0053 c -1.724,0 -2.80134,1.385334 -2.80134,3.12 v 7.369333 c 0,1.433334 1.92134,1.433334 1.92134,0 v -7.175999 h 0.60933 z"
         style="fill:#7030a1;fill-opacity:1;fill-rule:nonzero;stroke:#000000;stroke-width:0.377952;stroke-linecap:butt;stroke-linejoin:miter;stroke-miterlimit:10;stroke-dasharray:none;stroke-opacity:1" />
      <path
         id="path891"
         d="m 410.81317,53.977625 c 0,1.342666 -1.09466,2.432 -2.44266,2.432 -1.344,0 -2.43734,-1.089334 -2.43734,-2.432 0,-1.344 1.09334,-2.433334 2.43734,-2.433334 1.348,0 2.44266,1.089334 2.44266,2.433334 z"
         style="fill:#7030a1;fill-opacity:1;fill-rule:nonzero;stroke:#000000;stroke-width:0.377952;stroke-linecap:butt;stroke-linejoin:miter;stroke-miterlimit:4;stroke-dasharray:none;stroke-opacity:1" />
      <path
         id="path892"
         d="m 405.49051,79.664291 c 0,0.74 0.61333,1.344 1.364,1.344 0.76,0 1.36933,-0.598667 1.36933,-1.344 v -11.296 h 0.60933 v 11.296 c 0,0.74 0.60934,1.344 1.36534,1.344 0.74933,0 1.364,-0.598667 1.364,-1.344 l 0.005,-19.473333 h 0.604 v 7.177333 c 0,1.442667 1.912,1.442667 1.90667,0 v -7.329333 c 0,-1.593333 -0.95334,-3.156 -2.844,-3.156 l -5.468,-0.0053 c -1.724,0 -2.80267,1.385333 -2.80267,3.114666 v 7.376 c 0,1.432 1.92133,1.432 1.92133,0 v -7.177333 h 0.60934 z"
         style="fill:#7030a1;fill-opacity:1;fill-rule:nonzero;stroke:#000000;stroke-width:0.377952;stroke-linecap:butt;stroke-linejoin:miter;stroke-miterlimit:10;stroke-dasharray:none;stroke-opacity:1" />
      <path
         id="path893"
         d="m 459.13584,53.830958 c 0,1.344 -1.08933,2.432 -2.43733,2.432 -1.34934,0 -2.43734,-1.088 -2.43734,-2.432 0,-1.344 1.088,-2.432 2.43734,-2.432 1.348,0 2.43733,1.088 2.43733,2.432 z"
         style="fill:#7030a1;fill-opacity:1;fill-rule:nonzero;stroke:#000000;stroke-width:0.377952;stroke-linecap:butt;stroke-linejoin:miter;stroke-miterlimit:4;stroke-dasharray:none;stroke-opacity:1" />
      <path
         id="path894"
         d="m 453.81851,79.513624 c 0,0.74 0.60933,1.349333 1.364,1.349333 0.75466,0 1.36933,-0.605333 1.36933,-1.349333 v -11.292 h 0.60933 l -0.004,11.292 c 0,0.74 0.61334,1.349333 1.364,1.349333 0.75467,0 1.36934,-0.605333 1.36934,-1.349333 l 0.005,-19.469333 h 0.59867 v 7.177333 c 0,1.442667 1.912,1.442667 1.90666,0 v -7.327999 c 0,-1.598667 -0.948,-3.156 -2.844,-3.156 l -5.46266,-0.01067 c -1.72934,0 -2.808,1.385333 -2.808,3.12 v 7.369333 c 0,1.437333 1.92266,1.437333 1.92266,0 v -7.172 h 0.61467 z"
         style="fill:#7030a1;fill-opacity:1;fill-rule:nonzero;stroke:#000000;stroke-width:0.377952;stroke-linecap:butt;stroke-linejoin:miter;stroke-miterlimit:10;stroke-dasharray:none;stroke-opacity:1" />
      <path
         id="path895"
         d="m 427.39584,53.966958 c 0,1.344 -1.09333,2.432 -2.43733,2.432 -1.34934,0 -2.43734,-1.088 -2.43734,-2.432 0,-1.344 1.088,-2.433333 2.43734,-2.433333 1.344,0 2.43733,1.089333 2.43733,2.433333 z"
         style="fill:#7030a1;fill-opacity:1;fill-rule:nonzero;stroke:#000000;stroke-width:0.377952;stroke-linecap:butt;stroke-linejoin:miter;stroke-miterlimit:4;stroke-dasharray:none;stroke-opacity:1" />
      <path
         id="path896"
         d="m 422.07851,79.648291 c 0,0.745333 0.60933,1.349333 1.364,1.349333 0.756,0 1.37066,-0.604 1.37066,-1.349333 V 68.357624 h 0.60934 l -0.005,11.290667 c 0,0.745333 0.61467,1.349333 1.364,1.349333 0.756,0 1.36534,-0.604 1.36534,-1.349333 l 0.0107,-19.468 h 0.59867 v 7.177333 c 0,1.442667 1.91067,1.442667 1.90533,0 v -7.327999 c 0,-1.594667 -0.948,-3.157334 -2.84266,-3.157334 l -5.464,-0.0093 c -1.72934,0 -2.80667,1.390667 -2.80667,3.118667 v 7.375999 c 0,1.432 1.92133,1.432 1.92133,0 v -7.177333 h 0.61467 z"
         style="fill:#7030a1;fill-opacity:1;fill-rule:nonzero;stroke:#000000;stroke-width:0.377952;stroke-linecap:butt;stroke-linejoin:miter;stroke-miterlimit:10;stroke-dasharray:none;stroke-opacity:1" />
      <path
         id="path897"
         d="m 443.80784,53.940291 c 0,1.338667 -1.09467,2.428 -2.44267,2.428 -1.344,0 -2.43733,-1.089333 -2.43733,-2.428 0,-1.344 1.09333,-2.432 2.43733,-2.432 1.348,0 2.44267,1.088 2.44267,2.432 z"
         style="fill:#7030a1;fill-opacity:1;fill-rule:nonzero;stroke:#000000;stroke-width:0.377952;stroke-linecap:butt;stroke-linejoin:miter;stroke-miterlimit:4;stroke-dasharray:none;stroke-opacity:1" />
      <path
         id="path898"
         d="m 438.48517,79.622957 c 0,0.74 0.61467,1.344 1.364,1.344 0.76,0 1.36934,-0.598666 1.36934,-1.344 V 68.330958 h 0.60933 v 11.291999 c 0,0.74 0.60933,1.344 1.36533,1.344 0.74934,0 1.364,-0.598666 1.364,-1.344 l 0.005,-19.469332 h 0.604 v 7.171999 c 0,1.442667 1.912,1.442667 1.90133,0 v -7.327999 c 0,-1.593334 -0.948,-3.156 -2.83867,-3.156 l -5.468,-0.0053 c -1.724,0 -2.80266,1.385334 -2.80266,3.12 v 7.369333 c 0,1.432 1.92266,1.432 1.92266,0 v -7.177333 h 0.60934 z"
         style="fill:#7030a1;fill-opacity:1;fill-rule:nonzero;stroke:#000000;stroke-width:0.377952;stroke-linecap:butt;stroke-linejoin:miter;stroke-miterlimit:10;stroke-dasharray:none;stroke-opacity:1" />
      <text
         id="text898"
         xml:space="preserve"
         x="511.6246"
         y="201.84959"
         style="font-size:16px;stroke-width:1.33333"><tspan
           style="font-variant:normal;font-weight:normal;font-size:12.6667px;font-family:Verdana;writing-mode:lr-tb;fill:#0b0000;fill-opacity:1;fill-rule:nonzero;stroke:none;stroke-width:1.33333"
           x="511.6246 521.09991 528.78772"
           y="201.84959"
           id="tspan898">No </tspan><tspan
           style="font-variant:normal;font-weight:normal;font-size:12.6667px;font-family:Verdana;writing-mode:lr-tb;fill:#0b0000;fill-opacity:1;fill-rule:nonzero;stroke:none;stroke-width:1.33333"
           x="488.82086 497.47974 505.37164 513.38733 520.93292 526.3385 533.88409 541.89972 548.49902"
           y="217.68294"
           id="tspan899">Adherence</tspan><tspan
           style="font-variant:normal;font-weight:normal;font-size:12.6667px;font-family:Verdana;writing-mode:lr-tb;fill:#0b0000;fill-opacity:1;fill-rule:nonzero;stroke:none;stroke-width:1.33333"
           x="490.4534 498.09174 503.49734 506.97327 513.57257 521.26044 529.27606 536.82166 542.22723"
           y="158.80701"
           id="tspan900">Prisoners</tspan><tspan
           style="font-variant:normal;font-weight:normal;font-size:12.6667px;font-family:Verdana;writing-mode:lr-tb;fill:#0b0000;fill-opacity:1;fill-rule:nonzero;stroke:none;stroke-width:1.33333"
           x="491.3873 501.14706 504.62299 508.09888 515.64453 527.96484 540.28516"
           y="174.64035"
           id="tspan901">Dilemma</tspan><tspan
           style="font-variant:normal;font-weight:normal;font-size:12.6667px;font-family:Verdana;writing-mode:lr-tb;fill:#0b0000;fill-opacity:1;fill-rule:nonzero;stroke:none;stroke-width:1.33333"
           x="488.70175 497.36063 505.37622 513.06415 523.42999 531.32196 536.72754 540.20349 544.65662"
           y="122.47448"
           id="tspan902">Snowdrift</tspan><tspan
           style="font-variant:normal;font-weight:normal;font-size:12.6667px;font-family:Verdana;writing-mode:lr-tb;fill:#0b0000;fill-opacity:1;fill-rule:nonzero;stroke:none;stroke-width:1.33333"
           x="490.52051 500.03906 507.64648 513.05219 525.3725 533.0603 540.94928"
           y="64.971596"
           id="tspan903">Harmony</tspan><tspan
           style="font-variant:normal;font-weight:normal;font-size:12.6667px;font-family:Verdana;writing-mode:lr-tb;fill:#0b0000;fill-opacity:1;fill-rule:nonzero;stroke:none;stroke-width:1.33333"
           x="500.83691 510.6586 518.26605 530.58636"
           y="80.804939"
           id="tspan904">Game</tspan></text>
      <path
         id="path904"
         d="m 583.10384,177.0763 c -0.46267,0.088 -0.63467,0.432 -0.63467,0.724 0,0.344 0.26,0.48933 0.48933,0.48933 0.292,0 0.724,-0.20267 0.724,-0.83867 0,-0.864 -0.97866,-1.12533 -1.672,-1.12533 -1.932,0 -3.724,1.792 -3.724,3.57867 0,1.09333 0.75067,2.21866 2.36534,2.21866 2.192,0 3.20266,-1.26533 3.20266,-1.44266 0,-0.084 -0.11466,-0.22934 -0.22933,-0.22934 -0.0573,0 -0.088,0.0307 -0.20267,0.14534 -1.01066,1.18266 -2.51066,1.18266 -2.74,1.18266 -0.92133,0 -1.328,-0.63466 -1.328,-1.44266 0,-0.344 0.172,-1.76 0.83867,-2.65067 0.48933,-0.636 1.15067,-0.984 1.81733,-0.984 0.172,0 0.776,0.0307 1.09334,0.37467 z"
         style="fill:#000000;fill-opacity:1;fill-rule:nonzero;stroke:none;stroke-width:1.33333" />
      <path
         id="path905"
         d="m 577.1985,184.6483 h 7.12934"
         style="fill:none;stroke:#000000;stroke-width:0.734523;stroke-linecap:butt;stroke-linejoin:miter;stroke-miterlimit:10;stroke-dasharray:none;stroke-opacity:1" />
      <path
         id="path906"
         d="m 580.69317,196.48163 c 0.0827,0.032 0.40133,0.14666 0.516,0.172 0.63467,0.22933 0.80667,0.26133 0.80667,0.604 0,0.17733 -0.14,0.57866 -0.57334,0.57866 -0.20266,0 -0.692,-0.0253 -1.27066,-0.344 -0.0827,-0.088 -0.11467,-0.088 -0.14534,-0.088 -0.084,0 -0.19866,0.0573 -0.19866,0.20267 0,0.22933 0.92266,0.604 1.61466,0.604 0.89067,0 1.38534,-0.80667 1.38534,-1.41067 0,-0.48933 -0.26,-0.724 -0.52,-0.86533 -0.11467,-0.0573 -1.72934,-0.604 -1.87467,-0.66667 -1.24,-0.432 -1.93333,-0.66133 -1.93333,-1.41066 0,-0.45867 0.464,-1.46934 1.55733,-2.04667 0.54667,0.20267 1.09467,0.20267 1.328,0.20267 0.45867,0 1.324,0 1.324,-0.48934 0,-0.40666 -0.71867,-0.40666 -1.18267,-0.40666 -0.28666,0 -0.69333,0 -1.208,0.172 -0.34933,-0.25467 -0.43333,-0.688 -0.43333,-0.97867 0,-0.75066 0.516,-1.64133 1.5,-2.10533 0.28667,0.344 0.60533,0.344 0.92267,0.344 0.40133,0 1.26533,0 1.26533,-0.48933 0,-0.40134 -0.71867,-0.40134 -1.18267,-0.40134 -0.19733,0 -0.48933,0 -0.83333,0.0573 0,0 -0.0573,-0.22934 -0.0573,-0.37467 0,-0.14533 0.0267,-0.31733 0.0573,-0.432 0,-0.032 0.0267,-0.0893 0.0267,-0.11467 0,-0.0893 -0.084,-0.204 -0.19867,-0.204 -0.31733,0 -0.31733,0.49067 -0.31733,0.72 0,0.0573 0,0.31734 0.0573,0.48934 -1.76,0.49466 -2.364,1.588 -2.364,2.42666 0,0.516 0.22933,1.036 0.83333,1.38 -1.43733,0.83867 -1.87066,2.104 -1.87066,2.656 0,1.18267 1.24,1.61467 1.64133,1.756 z m 2.39067,-8.39067 c -0.11467,0.0267 -0.256,0.084 -0.776,0.084 -0.204,0 -0.34934,0 -0.52134,-0.084 0.22934,-0.056 0.34934,-0.056 0.604,-0.056 0.40667,0 0.49467,0 0.69334,0.056 z m -0.89067,3.45867 c -0.17733,0.0573 -0.34933,0.0893 -0.78133,0.0893 -0.22934,0 -0.40134,0 -0.636,-0.0893 0.34933,-0.0573 0.464,-0.0573 0.75066,-0.0573 0.40667,0 0.432,0 0.66667,0.0573 z"
         style="fill:#000000;fill-opacity:1;fill-rule:nonzero;stroke:none;stroke-width:1.33333" />
      <path
         id="path907"
         d="m 602.39584,173.8203 c 0,-0.348 0,-0.348 -0.37467,-0.348 -0.83333,0.80666 -1.98933,0.80666 -2.50533,0.80666 v 0.464 c 0.28666,0 1.15066,0 1.844,-0.34933 v 6.54667 c 0,0.432 0,0.60933 -1.27067,0.60933 h -0.48933 v 0.45867 c 0.23333,0 1.81733,-0.0573 2.28133,-0.0573 0.4,0 2.01467,0.0573 2.30667,0.0573 v -0.45867 h -0.48934 c -1.30266,0 -1.30266,-0.17733 -1.30266,-0.60933 z"
         style="fill:#000000;fill-opacity:1;fill-rule:nonzero;stroke:none;stroke-width:1.33333" />
      <path
         id="path908"
         d="M 588.73984,184.6483 H 614.7865"
         style="fill:none;stroke:#000000;stroke-width:0.734523;stroke-linecap:butt;stroke-linejoin:miter;stroke-miterlimit:10;stroke-dasharray:none;stroke-opacity:1" />
      <path
         id="path909"
         d="m 596.87584,188.3203 c 0,-1.15067 -0.98,-1.78667 -2.10534,-1.78667 -1.76,0 -3.05733,1.99067 -3.37466,3.28667 l -2.016,8.10399 c -0.0307,0.084 0.084,0.172 0.172,0.172 0.11466,0 0.22933,-0.0307 0.26133,-0.11466 l 0.83333,-3.432 c 0.29067,0.604 0.896,1.152 1.932,1.152 1.81734,0 3.83867,-1.29734 3.83867,-3.256 0,-0.78134 -0.34933,-1.53067 -1.01067,-1.964 0.636,-0.4 1.46934,-1.124 1.46934,-2.16133 z m -2.53734,2.13599 c -0.20266,0.0573 -0.28666,0.11467 -0.66133,0.11467 -0.20267,0 -0.52,-0.032 -0.60933,-0.0893 0.14666,-0.0573 0.49466,-0.0827 0.60933,-0.0827 0.19867,0 0.48933,0.0253 0.66133,0.0573 z m 1.704,-2.36533 c 0,0.66267 -0.34933,1.672 -1.12533,2.136 -0.26,-0.088 -0.48933,-0.17733 -1.21333,-0.17733 -0.45867,0 -1.09467,0.032 -1.09467,0.48933 0,0.31867 0.40133,0.376 1.03733,0.376 0.46267,0 0.83867,-0.084 1.23867,-0.19867 0.376,0.28667 0.57867,0.808 0.57867,1.38 0,1.84934 -1.27067,3.26134 -2.828,3.26134 -1.00534,0 -1.69867,-0.604 -1.69867,-1.64667 0,-0.11467 0,-0.25467 0.0267,-0.37467 l 0.864,-3.40133 c 0.292,-1.23866 1.44266,-3.05733 2.91733,-3.05733 0.776,0 1.29733,0.40667 1.29733,1.21333 z"
         style="fill:#000000;fill-opacity:1;fill-rule:nonzero;stroke:none;stroke-width:1.33333" />
      <path
         id="path910"
         d="m 602.3025,185.9563 c -2.42666,1.70266 -3.088,4.44266 -3.088,6.40133 0,1.81733 0.54667,4.64533 3.088,6.432 0.11467,0 0.25467,0 0.25467,-0.14534 0,-0.084 -0.0253,-0.11466 -0.11467,-0.204 -1.72933,-1.55733 -2.33333,-3.71866 -2.33333,-6.052 0,-3.48933 1.324,-5.19199 2.36533,-6.14533 0.0573,-0.0573 0.0827,-0.084 0.0827,-0.14133 0,-0.14533 -0.14,-0.14533 -0.25467,-0.14533 z"
         style="fill:#000000;fill-opacity:1;fill-rule:nonzero;stroke:none;stroke-width:1.33333" />
      <path
         id="path911"
         d="m 606.66117,190.51363 h 1.29733 c 0.26,0 0.40134,0 0.40134,-0.28667 0,-0.17733 -0.14134,-0.17733 -0.37467,-0.17733 h -1.20933 l 0.464,-1.90133 c 0.0267,-0.0573 0.0573,-0.14534 0.0573,-0.17067 0,-0.26133 -0.20267,-0.43333 -0.464,-0.43333 -0.31733,0 -0.48933,0.22933 -0.604,0.54666 -0.088,0.344 0.084,-0.29066 -0.48933,1.95867 h -1.30267 c -0.228,0 -0.4,0 -0.4,0.292 0,0.172 0.14533,0.172 0.37467,0.172 h 1.208 l -0.744,3.02533 c -0.0893,0.31867 -0.204,0.78133 -0.204,0.95333 0,0.75067 0.66133,1.20934 1.38533,1.20934 1.43733,0 2.24533,-1.78667 2.24533,-1.95867 0,-0.172 -0.172,-0.172 -0.19866,-0.172 -0.176,0 -0.176,0.0253 -0.29067,0.26 -0.344,0.808 -1.01067,1.52667 -1.69867,1.52667 -0.29066,0 -0.46266,-0.172 -0.46266,-0.636 0,-0.11467 0.0573,-0.40134 0.088,-0.516 z"
         style="fill:#000000;fill-opacity:1;fill-rule:nonzero;stroke:none;stroke-width:1.33333" />
      <path
         id="path912"
         d="m 610.1985,185.9563 c -0.0893,0 -0.22933,0 -0.22933,0.14533 0,0.0573 0.0253,0.084 0.11467,0.204 1.09333,1.00533 2.33333,2.73867 2.33333,6.052 0,2.68133 -0.83333,4.72933 -2.21867,5.968 -0.22933,0.23466 -0.22933,0.23466 -0.22933,0.31866 0,0.0573 0.0253,0.14534 0.14,0.14534 0.172,0 1.38533,-0.83867 2.25067,-2.45334 0.54666,-1.068 0.92133,-2.448 0.92133,-3.948 0,-1.81733 -0.54667,-4.64533 -3.08267,-6.43199 z"
         style="fill:#000000;fill-opacity:1;fill-rule:nonzero;stroke:none;stroke-width:1.33333" />
      <path
         id="path913"
         d="m 642.36517,173.8203 c 0,-0.348 0,-0.348 -0.37467,-0.348 -0.83333,0.80666 -1.99066,0.80666 -2.50533,0.80666 v 0.464 c 0.28533,0 1.15067,0 1.84267,-0.34933 v 6.54667 c 0,0.432 0,0.60933 -1.27067,0.60933 h -0.48933 v 0.45867 c 0.23466,0 1.81733,-0.0573 2.28133,-0.0573 0.40133,0 2.016,0.0573 2.308,0.0573 v -0.45867 h -0.49067 c -1.30133,0 -1.30133,-0.17733 -1.30133,-0.60933 z"
         style="fill:#000000;fill-opacity:1;fill-rule:nonzero;stroke:none;stroke-width:1.33333" />
      <path
         id="path914"
         d="m 619.1985,184.6483 h 45.072"
         style="fill:none;stroke:#000000;stroke-width:0.734523;stroke-linecap:butt;stroke-linejoin:miter;stroke-miterlimit:10;stroke-dasharray:none;stroke-opacity:1" />
      <path
         id="path915"
         d="m 623.75584,185.9563 c -2.42267,1.70266 -3.084,4.44266 -3.084,6.40133 0,1.81733 0.54666,4.64533 3.084,6.432 0.12,0 0.26,0 0.26,-0.14534 0,-0.084 -0.0253,-0.11466 -0.11467,-0.204 -1.72933,-1.55733 -2.33333,-3.71866 -2.33333,-6.052 0,-3.48933 1.32266,-5.19199 2.36533,-6.14533 0.0573,-0.0573 0.0827,-0.084 0.0827,-0.14133 0,-0.14533 -0.14,-0.14533 -0.26,-0.14533 z"
         style="fill:#000000;fill-opacity:1;fill-rule:nonzero;stroke:none;stroke-width:1.33333" />
      <path
         id="path916"
         d="m 629.24517,187.39896 c 0,-0.344 0,-0.344 -0.37467,-0.344 -0.83866,0.808 -1.98933,0.808 -2.51066,0.808 v 0.45734 c 0.28666,0 1.15066,0 1.844,-0.34267 v 6.54133 c 0,0.43733 0,0.60933 -1.26667,0.60933 h -0.48933 v 0.45867 c 0.22933,0 1.81333,-0.0573 2.276,-0.0573 0.40666,0 2.02133,0.0573 2.308,0.0573 v -0.45867 h -0.48934 c -1.29733,0 -1.29733,-0.172 -1.29733,-0.60933 z"
         style="fill:#000000;fill-opacity:1;fill-rule:nonzero;stroke:none;stroke-width:1.33333" />
      <path
         id="path917"
         d="m 641.84917,192.67496 c 0.20267,0 0.52133,0 0.52133,-0.28667 0,-0.34933 -0.31866,-0.34933 -0.52133,-0.34933 h -7.66667 c -0.20266,0 -0.52133,0 -0.52133,0.31867 0,0.31733 0.28667,0.31733 0.52133,0.31733 z"
         style="fill:#000000;fill-opacity:1;fill-rule:nonzero;stroke:none;stroke-width:1.33333" />
      <path
         id="path918"
         d="m 644.7185,197.14429 c -0.088,0.37467 -0.11466,0.46267 -0.604,0.46267 -0.172,0 -0.348,0 -0.348,0.28667 0,0.14533 0.11467,0.20266 0.176,0.20266 0.31334,0 0.74534,-0.0573 1.09467,-0.0573 0.432,0 0.92133,0.0573 1.35333,0.0573 0.11467,0 0.26134,-0.0573 0.26134,-0.28533 0,-0.204 -0.172,-0.204 -0.344,-0.204 -0.292,0 -0.636,0 -0.636,-0.14533 0,-0.0573 0.11466,-0.40134 0.14133,-0.57867 0.17733,-0.68667 0.348,-1.38 0.49467,-1.92667 0.14,0.25467 0.54666,0.74534 1.32266,0.74534 1.55734,0 3.28667,-1.72934 3.28667,-3.63067 0,-1.5 -1.036,-2.16133 -1.90133,-2.16133 -0.80667,0 -1.5,0.54666 -1.844,0.92133 -0.20267,-0.74933 -0.92667,-0.92133 -1.328,-0.92133 -0.48934,0 -0.80667,0.344 -1.01067,0.692 -0.26,0.43333 -0.45733,1.20933 -0.45733,1.29733 0,0.14 0.172,0.14 0.228,0.14 0.172,0 0.172,-0.0253 0.26133,-0.37467 0.19733,-0.74933 0.45867,-1.37999 0.948,-1.37999 0.348,0 0.432,0.28666 0.432,0.63066 0,0.14533 -0.0267,0.29067 -0.0573,0.37467 z m 2.45334,-5.67733 c 0.75066,-1.01067 1.38,-1.18266 1.78666,-1.18266 0.52134,0 0.95334,0.37466 0.95334,1.23999 0,0.51467 -0.292,1.844 -0.66667,2.59334 -0.344,0.636 -0.948,1.24 -1.61467,1.24 -0.92133,0 -1.15066,-0.98 -1.15066,-1.12534 0,-0.0573 0.0253,-0.14533 0.0253,-0.20266 z"
         style="fill:#000000;fill-opacity:1;fill-rule:nonzero;stroke:none;stroke-width:1.33333" />
      <path
         id="path919"
         d="m 656.7665,190.12296 h -0.40133 c 0,0.172 -0.11467,0.74933 -0.26134,0.83867 -0.0573,0.0573 -0.83333,0.0573 -0.97866,0.0573 h -1.78667 c 0.604,-0.432 1.26533,-0.95333 1.81333,-1.328 0.83867,-0.57866 1.61467,-1.09466 1.61467,-2.07333 0,-1.18267 -1.12,-1.81733 -2.42267,-1.81733 -1.24,0 -2.16133,0.692 -2.16133,1.61466 0,0.45734 0.40667,0.54667 0.54667,0.54667 0.23466,0 0.52133,-0.172 0.52133,-0.54667 0,-0.31866 -0.22933,-0.52133 -0.52133,-0.52133 0.26133,-0.432 0.808,-0.69333 1.41733,-0.69333 0.89067,0 1.64,0.52133 1.64,1.41733 0,0.776 -0.54667,1.38 -1.23867,1.95867 l -2.25066,1.90133 c -0.0827,0.088 -0.11467,0.088 -0.11467,0.14533 v 0.28667 h 4.27067 z"
         style="fill:#000000;fill-opacity:1;fill-rule:nonzero;stroke:none;stroke-width:1.33333" />
      <path
         id="path920"
         d="m 659.67717,185.9563 c -0.088,0 -0.22934,0 -0.22934,0.14533 0,0.0573 0.0267,0.084 0.11467,0.204 1.09467,1.00533 2.33333,2.73867 2.33333,6.052 0,2.68133 -0.83333,4.72933 -2.21866,5.968 -0.22934,0.23466 -0.22934,0.23466 -0.22934,0.31866 0,0.0573 0.0267,0.14534 0.14134,0.14534 0.17733,0 1.38533,-0.83867 2.24933,-2.45334 0.552,-1.068 0.928,-2.448 0.928,-3.948 0,-1.81733 -0.552,-4.64533 -3.08933,-6.43199 z"
         style="fill:#000000;fill-opacity:1;fill-rule:nonzero;stroke:none;stroke-width:1.33333" />
      <path
         id="path921"
         d="m 585.01584,136.33096 c -0.464,0.0893 -0.636,0.432 -0.636,0.71867 0,0.34933 0.26133,0.49467 0.49066,0.49467 0.28667,0 0.71867,-0.20267 0.71867,-0.83867 0,-0.864 -0.98,-1.124 -1.672,-1.124 -1.932,0 -3.71867,1.78667 -3.71867,3.57733 0,1.09467 0.74934,2.21867 2.364,2.21867 2.19334,0 3.19867,-1.27067 3.19867,-1.44267 0,-0.088 -0.11467,-0.22933 -0.22933,-0.22933 -0.0573,0 -0.084,0.0267 -0.204,0.14133 -1.004,1.18267 -2.504,1.18267 -2.73867,1.18267 -0.92267,0 -1.32267,-0.63067 -1.32267,-1.43867 0,-0.348 0.17067,-1.76 0.83334,-2.656 0.48933,-0.63466 1.156,-0.97866 1.81733,-0.97866 0.172,0 0.78133,0.0307 1.09867,0.37466 z"
         style="fill:#000000;fill-opacity:1;fill-rule:nonzero;stroke:none;stroke-width:1.33333" />
      <path
         id="path922"
         d="m 579.10917,143.9043 h 7.13067"
         style="fill:none;stroke:#000000;stroke-width:0.734523;stroke-linecap:butt;stroke-linejoin:miter;stroke-miterlimit:10;stroke-dasharray:none;stroke-opacity:1" />
      <path
         id="path923"
         d="m 582.59984,155.73763 c 0.088,0.0253 0.40533,0.14 0.52,0.172 0.636,0.22933 0.808,0.26 0.808,0.604 0,0.172 -0.14667,0.57733 -0.57867,0.57733 -0.20267,0 -0.692,-0.0307 -1.26533,-0.348 -0.0893,-0.084 -0.12,-0.084 -0.14667,-0.084 -0.088,0 -0.20267,0.0573 -0.20267,0.204 0,0.228 0.92267,0.604 1.61467,0.604 0.896,0 1.38533,-0.808 1.38533,-1.412 0,-0.49466 -0.26,-0.724 -0.52,-0.86933 -0.11466,-0.0573 -1.72933,-0.604 -1.876,-0.66133 -1.23866,-0.43334 -1.92666,-0.66134 -1.92666,-1.412 0,-0.464 0.45866,-1.47334 1.552,-2.04667 0.552,0.19733 1.09866,0.19733 1.328,0.19733 0.464,0 1.328,0 1.328,-0.48933 0,-0.40133 -0.724,-0.40133 -1.18267,-0.40133 -0.29067,0 -0.692,0 -1.21333,0.172 -0.34267,-0.26 -0.432,-0.692 -0.432,-0.97867 0,-0.75067 0.52133,-1.64533 1.5,-2.104 0.292,0.344 0.604,0.344 0.92266,0.344 0.40534,0 1.27067,0 1.27067,-0.49067 0,-0.40533 -0.71867,-0.40533 -1.18267,-0.40533 -0.20266,0 -0.48933,0 -0.83866,0.0627 0,0 -0.0573,-0.23467 -0.0573,-0.376 0,-0.14534 0.0307,-0.31734 0.0573,-0.43734 0,-0.0253 0.0307,-0.0827 0.0307,-0.11466 0,-0.0827 -0.088,-0.19734 -0.20266,-0.19734 -0.31734,0 -0.31734,0.48934 -0.31734,0.71867 0,0.0573 0,0.31733 0.0573,0.48933 -1.756,0.48934 -2.36534,1.58934 -2.36534,2.42267 0,0.52 0.23467,1.04133 0.83867,1.38533 -1.44267,0.83867 -1.87467,2.104 -1.87467,2.65067 0,1.18267 1.24,1.61467 1.64534,1.76 z m 2.39466,-8.396 c -0.11333,0.0307 -0.26,0.088 -0.78,0.088 -0.19866,0 -0.344,0 -0.516,-0.088 0.22934,-0.0573 0.344,-0.0573 0.604,-0.0573 0.40134,0 0.48934,0 0.692,0.0573 z m -0.89466,3.464 c -0.172,0.0573 -0.344,0.0827 -0.776,0.0827 -0.23467,0 -0.40667,0 -0.636,-0.0827 0.344,-0.0573 0.45866,-0.0573 0.74933,-0.0573 0.40133,0 0.43333,0 0.66267,0.0573 z"
         style="fill:#000000;fill-opacity:1;fill-rule:nonzero;stroke:none;stroke-width:1.33333" />
      <path
         id="path924"
         d="m 604.30784,133.07096 c 0,-0.344 0,-0.344 -0.37467,-0.344 -0.83867,0.80667 -1.99067,0.80667 -2.51067,0.80667 v 0.464 c 0.29067,0 1.156,0 1.848,-0.34933 v 6.548 c 0,0.432 0,0.604 -1.27066,0.604 h -0.48934 v 0.46266 c 0.22934,0 1.81734,-0.0573 2.276,-0.0573 0.40667,0 2.02134,0.0573 2.308,0.0573 v -0.46266 h -0.49066 c -1.296,0 -1.296,-0.172 -1.296,-0.604 z"
         style="fill:#000000;fill-opacity:1;fill-rule:nonzero;stroke:none;stroke-width:1.33333" />
      <path
         id="path925"
         d="M 590.65184,143.9043 H 616.6985"
         style="fill:none;stroke:#000000;stroke-width:0.734523;stroke-linecap:butt;stroke-linejoin:miter;stroke-miterlimit:10;stroke-dasharray:none;stroke-opacity:1" />
      <path
         id="path926"
         d="m 598.7865,147.5763 c 0,-1.156 -0.984,-1.78667 -2.104,-1.78667 -1.76,0 -3.05733,1.98933 -3.37466,3.28667 l -2.02134,8.09866 c -0.0253,0.088 0.0893,0.17734 0.172,0.17734 0.12,0 0.23467,-0.032 0.26,-0.11467 l 0.83867,-3.432 c 0.28667,0.604 0.89067,1.15067 1.93333,1.15067 1.81734,0 3.83334,-1.29734 3.83334,-3.25467 0,-0.78133 -0.344,-1.532 -1.01067,-1.964 0.63467,-0.40133 1.47333,-1.12533 1.47333,-2.16133 z m -2.536,2.12933 c -0.204,0.0627 -0.292,0.12 -0.66666,0.12 -0.204,0 -0.516,-0.0307 -0.604,-0.088 0.14533,-0.0573 0.48933,-0.0893 0.604,-0.0893 0.20266,0 0.48933,0.032 0.66666,0.0573 z m 1.69734,-2.364 c 0,0.66667 -0.344,1.67733 -1.124,2.136 -0.26134,-0.084 -0.49067,-0.172 -1.20934,-0.172 -0.46266,0 -1.09866,0.0307 -1.09866,0.48933 0,0.31734 0.40666,0.37467 1.04133,0.37467 0.45867,0 0.83333,-0.088 1.24,-0.20267 0.37467,0.29067 0.57333,0.80667 0.57333,1.38534 0,1.844 -1.26666,3.26 -2.82266,3.26 -1.01067,0 -1.704,-0.60934 -1.704,-1.64534 0,-0.11466 0,-0.26133 0.032,-0.376 l 0.864,-3.4 c 0.28666,-1.24 1.44266,-3.05733 2.912,-3.05733 0.78133,0 1.296,0.4 1.296,1.208 z"
         style="fill:#000000;fill-opacity:1;fill-rule:nonzero;stroke:none;stroke-width:1.33333" />
      <path
         id="path927"
         d="m 604.20917,145.21096 c -2.42267,1.69867 -3.084,4.43734 -3.084,6.40134 0,1.81733 0.54667,4.64133 3.084,6.432 0.11467,0 0.26,0 0.26,-0.14534 0,-0.088 -0.032,-0.11466 -0.11467,-0.20266 -1.73466,-1.55734 -2.33866,-3.71867 -2.33866,-6.05734 0,-3.48533 1.328,-5.188 2.364,-6.14133 0.0573,-0.0573 0.0893,-0.0827 0.0893,-0.14533 0,-0.14134 -0.14533,-0.14134 -0.26,-0.14134 z"
         style="fill:#000000;fill-opacity:1;fill-rule:nonzero;stroke:none;stroke-width:1.33333" />
      <path
         id="path928"
         d="m 608.56784,149.7683 h 1.29733 c 0.26,0 0.40533,0 0.40533,-0.29067 0,-0.172 -0.14533,-0.172 -0.37466,-0.172 h -1.21334 l 0.464,-1.90133 c 0.0307,-0.0627 0.0573,-0.14667 0.0573,-0.17734 0,-0.25466 -0.204,-0.432 -0.45867,-0.432 -0.31733,0 -0.49467,0.23467 -0.60933,0.54667 -0.084,0.34933 0.088,-0.28667 -0.48934,1.964 h -1.29733 c -0.22933,0 -0.40667,0 -0.40667,0.28533 0,0.17734 0.14667,0.17734 0.376,0.17734 h 1.21334 l -0.75067,3.02666 c -0.088,0.31734 -0.20267,0.776 -0.20267,0.95334 0,0.74933 0.66667,1.208 1.38534,1.208 1.44266,0 2.25066,-1.78667 2.25066,-1.95867 0,-0.17733 -0.172,-0.17733 -0.204,-0.17733 -0.172,0 -0.172,0.032 -0.28666,0.26133 -0.348,0.80667 -1.01067,1.53067 -1.70267,1.53067 -0.28667,0 -0.45867,-0.17734 -0.45867,-0.63467 0,-0.11467 0.0573,-0.40667 0.084,-0.52133 z"
         style="fill:#000000;fill-opacity:1;fill-rule:nonzero;stroke:none;stroke-width:1.33333" />
      <path
         id="path929"
         d="m 612.10384,145.21096 c -0.0827,0 -0.228,0 -0.228,0.14134 0,0.0627 0.0307,0.088 0.11466,0.20266 1.09867,1.01067 2.33734,2.74 2.33734,6.05734 0,2.68266 -0.83734,4.72933 -2.224,5.96933 -0.228,0.22933 -0.228,0.22933 -0.228,0.31733 0,0.0573 0.0307,0.14534 0.14533,0.14534 0.172,0 1.38,-0.83867 2.24933,-2.45334 0.548,-1.06666 0.92267,-2.452 0.92267,-3.952 0,-1.81333 -0.54667,-4.64133 -3.08933,-6.428 z"
         style="fill:#000000;fill-opacity:1;fill-rule:nonzero;stroke:none;stroke-width:1.33333" />
      <path
         id="path930"
         d="m 640.68784,133.07096 c 0,-0.344 0,-0.344 -0.37467,-0.344 -0.83333,0.80667 -1.98933,0.80667 -2.51067,0.80667 v 0.464 c 0.292,0 1.156,0 1.84934,-0.34933 v 6.548 c 0,0.432 0,0.604 -1.272,0.604 h -0.48934 v 0.46266 c 0.22934,0 1.81867,-0.0573 2.276,-0.0573 0.40667,0 2.02134,0.0573 2.308,0.0573 v -0.46266 h -0.48933 c -1.29733,0 -1.29733,-0.172 -1.29733,-0.604 z"
         style="fill:#000000;fill-opacity:1;fill-rule:nonzero;stroke:none;stroke-width:1.33333" />
      <path
         id="path931"
         d="m 621.10917,143.9043 h 37.89066"
         style="fill:none;stroke:#000000;stroke-width:0.734523;stroke-linecap:butt;stroke-linejoin:miter;stroke-miterlimit:10;stroke-dasharray:none;stroke-opacity:1" />
      <path
         id="path932"
         d="m 625.6665,145.21096 c -2.42133,1.69867 -3.08266,4.43734 -3.08266,6.40134 0,1.81733 0.54666,4.64133 3.08266,6.432 0.11467,0 0.26134,0 0.26134,-0.14534 0,-0.088 -0.032,-0.11466 -0.11467,-0.20266 -1.73467,-1.55734 -2.33867,-3.71867 -2.33867,-6.05734 0,-3.48533 1.328,-5.188 2.364,-6.14133 0.0573,-0.0573 0.0893,-0.0827 0.0893,-0.14533 0,-0.14134 -0.14667,-0.14134 -0.26134,-0.14134 z"
         style="fill:#000000;fill-opacity:1;fill-rule:nonzero;stroke:none;stroke-width:1.33333" />
      <path
         id="path933"
         d="m 631.15184,146.65363 c 0,-0.348 0,-0.348 -0.376,-0.348 -0.83334,0.80667 -1.98934,0.80667 -2.50934,0.80667 v 0.464 c 0.29067,0 1.156,0 1.848,-0.34934 v 6.54667 c 0,0.432 0,0.604 -1.27066,0.604 h -0.48934 v 0.464 c 0.22934,0 1.81734,-0.0573 2.28134,-0.0573 0.40133,0 2.016,0.0573 2.30133,0.0573 v -0.464 h -0.48933 c -1.296,0 -1.296,-0.172 -1.296,-0.604 z"
         style="fill:#000000;fill-opacity:1;fill-rule:nonzero;stroke:none;stroke-width:1.33333" />
      <path
         id="path934"
         d="m 643.76117,151.92963 c 0.20267,0 0.51467,0 0.51467,-0.29067 0,-0.344 -0.312,-0.344 -0.51467,-0.344 h -7.672 c -0.204,0 -0.52133,0 -0.52133,0.31734 0,0.31733 0.292,0.31733 0.52133,0.31733 z"
         style="fill:#000000;fill-opacity:1;fill-rule:nonzero;stroke:none;stroke-width:1.33333" />
      <path
         id="path935"
         d="m 646.6305,156.39896 c -0.088,0.37467 -0.12,0.464 -0.60933,0.464 -0.172,0 -0.344,0 -0.344,0.28534 0,0.14666 0.11467,0.204 0.172,0.204 0.31733,0 0.75067,-0.0573 1.09333,-0.0573 0.43334,0 0.928,0.0573 1.36,0.0573 0.11467,0 0.25467,-0.0573 0.25467,-0.292 0,-0.19734 -0.172,-0.19734 -0.34267,-0.19734 -0.28666,0 -0.636,0 -0.636,-0.14666 0,-0.0573 0.11467,-0.40534 0.14534,-0.57734 0.172,-0.69333 0.344,-1.38533 0.49066,-1.93333 0.14534,0.26133 0.54667,0.75067 1.328,0.75067 1.55734,0 3.28533,-1.72934 3.28533,-3.63067 0,-1.5 -1.03599,-2.16667 -1.90533,-2.16667 -0.808,0 -1.49466,0.54667 -1.844,0.92267 -0.20266,-0.74533 -0.92133,-0.92267 -1.328,-0.92267 -0.48933,0 -0.808,0.34934 -1.00533,0.69334 -0.26,0.432 -0.464,1.21333 -0.464,1.296 0,0.14666 0.172,0.14666 0.22933,0.14666 0.17734,0 0.17734,-0.032 0.26,-0.37466 0.204,-0.75067 0.464,-1.38667 0.95334,-1.38667 0.344,0 0.43333,0.292 0.43333,0.636 0,0.14533 -0.032,0.28667 -0.0573,0.37467 z m 2.448,-5.68266 c 0.74934,-1.01067 1.38534,-1.18267 1.78667,-1.18267 0.52,0 0.95333,0.376 0.95333,1.24 0,0.52133 -0.28666,1.84933 -0.66133,2.59867 -0.34933,0.63066 -0.95333,1.24 -1.61467,1.24 -0.92266,0 -1.15733,-0.984 -1.15733,-1.12534 0,-0.0573 0.032,-0.14533 0.032,-0.20266 z"
         style="fill:#000000;fill-opacity:1;fill-rule:nonzero;stroke:none;stroke-width:1.33333" />
      <path
         id="path936"
         d="m 654.41183,145.21096 c -0.088,0 -0.23466,0 -0.23466,0.14134 0,0.0627 0.032,0.088 0.11466,0.20266 1.09867,1.01067 2.33867,2.74 2.33867,6.05734 0,2.68266 -0.83867,4.72933 -2.21867,5.96933 -0.23466,0.22933 -0.23466,0.22933 -0.23466,0.31733 0,0.0573 0.032,0.14534 0.14666,0.14534 0.17067,0 1.38534,-0.83867 2.24934,-2.45334 0.54666,-1.06666 0.92133,-2.452 0.92133,-3.952 0,-1.81333 -0.54667,-4.64133 -3.08267,-6.428 z"
         style="fill:#000000;fill-opacity:1;fill-rule:nonzero;stroke:none;stroke-width:1.33333" />
      <path
         id="path937"
         d="m 584.65717,85.757624 c -0.464,0.08933 -0.636,0.433333 -0.636,0.724 0,0.344 0.26,0.490667 0.48933,0.490667 0.292,0 0.724,-0.204 0.724,-0.838667 0,-0.865333 -0.97866,-1.125333 -1.672,-1.125333 -1.932,0 -3.724,1.792 -3.724,3.578666 0,1.093334 0.75067,2.218667 2.36534,2.218667 2.192,0 3.20266,-1.266667 3.20266,-1.442667 0,-0.084 -0.11466,-0.229333 -0.22933,-0.229333 -0.0573,0 -0.088,0.03067 -0.20267,0.145333 -1.01066,1.182667 -2.51066,1.182667 -2.74,1.182667 -0.92133,0 -1.328,-0.636 -1.328,-1.442667 0,-0.344 0.172,-1.761333 0.83867,-2.650666 0.48933,-0.636 1.15067,-0.985334 1.81733,-0.985334 0.172,0 0.776,0.032 1.09467,0.374667 z"
         style="fill:#000000;fill-opacity:1;fill-rule:nonzero;stroke:none;stroke-width:1.33333" />
      <path
         id="path938"
         d="m 578.7505,93.330953 h 7.13067"
         style="fill:none;stroke:#000000;stroke-width:0.734523;stroke-linecap:butt;stroke-linejoin:miter;stroke-miterlimit:10;stroke-dasharray:none;stroke-opacity:1" />
      <path
         id="path939"
         d="m 582.24517,105.1643 c 0.0827,0.032 0.40133,0.14666 0.516,0.172 0.63467,0.23466 0.80667,0.26 0.80667,0.60933 0,0.172 -0.14,0.57333 -0.57334,0.57333 -0.20266,0 -0.692,-0.0267 -1.27066,-0.344 -0.0827,-0.088 -0.11467,-0.088 -0.14534,-0.088 -0.084,0 -0.19866,0.0573 -0.19866,0.20267 0,0.22933 0.92266,0.604 1.61466,0.604 0.89067,0 1.38534,-0.80667 1.38534,-1.412 0,-0.48933 -0.26,-0.71867 -0.52,-0.864 -0.11467,-0.0573 -1.72934,-0.604 -1.87467,-0.66667 -1.24,-0.432 -1.93333,-0.66133 -1.93333,-1.412 0,-0.45733 0.464,-1.468 1.55733,-2.04666 0.548,0.204 1.09467,0.204 1.328,0.204 0.45867,0 1.324,0 1.324,-0.49067 0,-0.405334 -0.71867,-0.405334 -1.18267,-0.405334 -0.28666,0 -0.69333,0 -1.208,0.172 -0.34933,-0.256 -0.43333,-0.688003 -0.43333,-0.980003 0,-0.74934 0.516,-1.64 1.5,-2.104 0.28667,0.344 0.60533,0.344 0.92267,0.344 0.40133,0 1.26533,0 1.26533,-0.48934 0,-0.40133 -0.71867,-0.40133 -1.18267,-0.40133 -0.19733,0 -0.48933,0 -0.83333,0.0573 0,0 -0.0573,-0.22933 -0.0573,-0.37466 0,-0.14667 0.0267,-0.31867 0.0573,-0.43334 0,-0.0307 0.0267,-0.088 0.0267,-0.11333 0,-0.0893 -0.084,-0.204 -0.19867,-0.204 -0.31733,0 -0.31733,0.48933 -0.31733,0.71867 0,0.0573 0,0.31866 0.0573,0.49466 -1.76,0.49067 -2.364,1.584 -2.364,2.42267 0,0.514673 0.22933,1.036003 0.83333,1.380007 -1.43733,0.83867 -1.87066,2.10933 -1.87066,2.656 0,1.18267 1.24,1.61467 1.64133,1.756 z m 2.39067,-8.390677 c -0.11467,0.0267 -0.256,0.084 -0.776,0.084 -0.20267,0 -0.34934,0 -0.52134,-0.084 0.22934,-0.0573 0.34934,-0.0573 0.604,-0.0573 0.40667,0 0.49467,0 0.69334,0.0573 z m -0.89067,3.458677 c -0.17733,0.0573 -0.34933,0.088 -0.78133,0.088 -0.22934,0 -0.40134,0 -0.636,-0.088 0.34933,-0.0573 0.464,-0.0573 0.75066,-0.0573 0.40667,0 0.432,0 0.66667,0.0573 z"
         style="fill:#000000;fill-opacity:1;fill-rule:nonzero;stroke:none;stroke-width:1.33333" />
      <path
         id="path940"
         d="m 603.94784,82.502957 c 0,-0.349333 0,-0.349333 -0.37467,-0.349333 -0.83333,0.808 -1.98933,0.808 -2.50533,0.808 v 0.462667 c 0.28666,0 1.15066,0 1.844,-0.348 v 6.546666 c 0,0.432 0,0.609334 -1.27067,0.609334 h -0.48933 v 0.458666 c 0.23333,0 1.81733,-0.05733 2.28133,-0.05733 0.4,0 2.01467,0.05733 2.30667,0.05733 v -0.458666 h -0.48934 c -1.30266,0 -1.30266,-0.177334 -1.30266,-0.609334 z"
         style="fill:#000000;fill-opacity:1;fill-rule:nonzero;stroke:none;stroke-width:1.33333" />
      <path
         id="path941"
         d="M 590.29184,93.330953 H 616.3385"
         style="fill:none;stroke:#000000;stroke-width:0.734523;stroke-linecap:butt;stroke-linejoin:miter;stroke-miterlimit:10;stroke-dasharray:none;stroke-opacity:1" />
      <path
         id="path942"
         d="m 598.42784,97.002953 c 0,-1.15066 -0.98,-1.78666 -2.104,-1.78666 -1.76134,0 -3.05734,1.98933 -3.376,3.28666 l -2.01467,8.104007 c -0.032,0.084 0.0827,0.172 0.17067,0.172 0.11466,0 0.22933,-0.0253 0.26133,-0.11466 l 0.83333,-3.432 c 0.292,0.604 0.896,1.156 1.932,1.156 1.81734,0 3.83867,-1.30134 3.83867,-3.26 0,-0.78134 -0.34933,-1.532004 -1.01067,-1.964007 0.636,-0.40134 1.46934,-1.12534 1.46934,-2.16134 z m -2.53734,2.136 c -0.20266,0.0573 -0.28666,0.11467 -0.66133,0.11467 -0.20267,0 -0.52,-0.032 -0.60933,-0.0893 0.14666,-0.0573 0.49466,-0.0827 0.60933,-0.0827 0.19867,0 0.48933,0.0253 0.66133,0.0573 z m 1.704,-2.36533 c 0,0.66133 -0.34933,1.672 -1.12533,2.136 -0.26,-0.0893 -0.48933,-0.17733 -1.21333,-0.17733 -0.45867,0 -1.09467,0.0307 -1.09467,0.48933 0,0.317333 0.40133,0.374673 1.03733,0.374673 0.46267,0 0.83867,-0.0827 1.23867,-0.197343 0.376,0.286673 0.57867,0.806677 0.57867,1.380007 0,1.84934 -1.27067,3.26 -2.828,3.26 -1.00534,0 -1.69734,-0.604 -1.69734,-1.64 0,-0.12 0,-0.26 0.0253,-0.37466 l 0.864,-3.406677 c 0.292,-1.24 1.444,-3.05733 2.91733,-3.05733 0.776,0 1.29733,0.40666 1.29733,1.21333 z"
         style="fill:#000000;fill-opacity:1;fill-rule:nonzero;stroke:none;stroke-width:1.33333" />
      <path
         id="path943"
         d="m 603.84917,94.638953 c -2.42133,1.70267 -3.08267,4.44267 -3.08267,6.400007 0,1.81867 0.54667,4.64667 3.08267,6.43334 0.12,0 0.26,0 0.26,-0.14667 0,-0.0827 -0.0253,-0.11467 -0.11467,-0.19733 -1.728,-1.55734 -2.33333,-3.724 -2.33333,-6.05734 0,-3.489337 1.324,-5.193337 2.36533,-6.141337 0.0573,-0.0627 0.0827,-0.088 0.0827,-0.14533 0,-0.14534 -0.14,-0.14534 -0.26,-0.14534 z"
         style="fill:#000000;fill-opacity:1;fill-rule:nonzero;stroke:none;stroke-width:1.33333" />
      <path
         id="path944"
         d="m 608.2145,99.196293 h 1.296 c 0.26,0 0.40134,0 0.40134,-0.28667 0,-0.17733 -0.14134,-0.17733 -0.37467,-0.17733 h -1.20933 l 0.464,-1.90134 c 0.0267,-0.0573 0.0573,-0.14533 0.0573,-0.172 0,-0.26 -0.20267,-0.432 -0.464,-0.432 -0.31733,0 -0.48933,0.22934 -0.604,0.54667 -0.088,0.344 0.084,-0.28667 -0.48933,1.95867 h -1.30134 c -0.22933,0 -0.40133,0 -0.40133,0.292 0,0.172 0.14533,0.172 0.37467,0.172 h 1.208 l -0.744,3.025337 c -0.0893,0.31733 -0.204,0.78133 -0.204,0.95333 0,0.74934 0.66133,1.21334 1.38533,1.21334 1.43733,0 2.24533,-1.792 2.24533,-1.964 0,-0.17067 -0.172,-0.17067 -0.19733,-0.17067 -0.17733,0 -0.17733,0.0253 -0.292,0.26 -0.344,0.80667 -1.01067,1.52533 -1.69867,1.52533 -0.29066,0 -0.46266,-0.172 -0.46266,-0.63466 0,-0.11467 0.0573,-0.40134 0.088,-0.516 z"
         style="fill:#000000;fill-opacity:1;fill-rule:nonzero;stroke:none;stroke-width:1.33333" />
      <path
         id="path945"
         d="m 611.7505,94.638953 c -0.0893,0 -0.22933,0 -0.22933,0.14534 0,0.0573 0.0267,0.0827 0.11467,0.20266 1.09333,1.00534 2.33333,2.74 2.33333,6.052007 0,2.68267 -0.83333,4.72934 -2.21867,5.96934 -0.22933,0.23466 -0.22933,0.23466 -0.22933,0.31733 0,0.0573 0.0267,0.14667 0.14,0.14667 0.172,0 1.38533,-0.83867 2.25067,-2.45334 0.54666,-1.068 0.92133,-2.448 0.92133,-3.948 0,-1.817337 -0.54667,-4.646667 -3.08267,-6.432007 z"
         style="fill:#000000;fill-opacity:1;fill-rule:nonzero;stroke:none;stroke-width:1.33333" />
      <path
         id="path946"
         d="m 644.11984,82.502957 c 0,-0.349333 0,-0.349333 -0.37467,-0.349333 -0.83333,0.808 -1.98933,0.808 -2.50533,0.808 v 0.462667 c 0.28666,0 1.15066,0 1.844,-0.348 v 6.546666 c 0,0.432 0,0.609334 -1.27067,0.609334 h -0.48933 v 0.458666 c 0.23333,0 1.81733,-0.05733 2.28,-0.05733 0.40133,0 2.016,0.05733 2.308,0.05733 v -0.458666 h -0.48934 c -1.30266,0 -1.30266,-0.177334 -1.30266,-0.609334 z"
         style="fill:#000000;fill-opacity:1;fill-rule:nonzero;stroke:none;stroke-width:1.33333" />
      <path
         id="path947"
         d="m 620.7505,93.330953 h 45.47333"
         style="fill:none;stroke:#000000;stroke-width:0.734523;stroke-linecap:butt;stroke-linejoin:miter;stroke-miterlimit:10;stroke-dasharray:none;stroke-opacity:1" />
      <path
         id="path948"
         d="m 621.70384,105.82563 c -0.084,0.37467 -0.11467,0.464 -0.604,0.464 -0.172,0 -0.344,0 -0.344,0.28667 0,0.14533 0.11466,0.20266 0.172,0.20266 0.31733,0 0.74933,-0.0573 1.09333,-0.0573 0.432,0 0.92133,0.0573 1.35467,0.0573 0.11866,0 0.26,-0.0573 0.26,-0.28666 0,-0.20267 -0.172,-0.20267 -0.344,-0.20267 -0.28667,0 -0.63467,0 -0.63467,-0.14533 0,-0.0573 0.11333,-0.40134 0.14533,-0.57334 0.172,-0.69333 0.344,-1.38533 0.48934,-1.932 0.14533,0.25467 0.54666,0.74934 1.328,0.74934 1.55733,0 3.28666,-1.73467 3.28666,-3.63467 0,-1.500007 -1.04133,-2.162677 -1.90666,-2.162677 -0.80667,0 -1.5,0.548 -1.84267,0.922673 -0.204,-0.750673 -0.92267,-0.922673 -1.32933,-0.922673 -0.48934,0 -0.80667,0.344 -1.004,0.69334 -0.26134,0.432003 -0.464,1.208007 -0.464,1.297337 0,0.14 0.172,0.14 0.22933,0.14 0.172,0 0.172,-0.0253 0.26,-0.37467 0.20267,-0.750664 0.464,-1.380007 0.95333,-1.380007 0.344,0 0.432,0.28667 0.432,0.629343 0,0.14666 -0.0307,0.292 -0.0573,0.376 z m 2.45333,-5.67733 c 0.74933,-1.009347 1.38533,-1.181347 1.78533,-1.181347 0.52134,0 0.95334,0.37467 0.95334,1.238677 0,0.516 -0.28667,1.844 -0.66134,2.59467 -0.34933,0.63466 -0.95333,1.23866 -1.61466,1.23866 -0.92667,0 -1.156,-0.97866 -1.156,-1.124 0,-0.0573 0.0307,-0.14666 0.0307,-0.204 z"
         style="fill:#000000;fill-opacity:1;fill-rule:nonzero;stroke:none;stroke-width:1.33333" />
      <path
         id="path949"
         d="m 632.8905,94.638953 c -2.42133,1.70267 -3.088,4.44267 -3.088,6.400007 0,1.81867 0.54667,4.64667 3.088,6.43334 0.11467,0 0.26134,0 0.26134,-0.14667 0,-0.0827 -0.032,-0.11467 -0.12,-0.19733 -1.72934,-1.55734 -2.33334,-3.724 -2.33334,-6.05734 0,-3.489337 1.328,-5.193337 2.364,-6.141337 0.0573,-0.0627 0.0893,-0.088 0.0893,-0.14533 0,-0.14534 -0.14667,-0.14534 -0.26134,-0.14534 z"
         style="fill:#000000;fill-opacity:1;fill-rule:nonzero;stroke:none;stroke-width:1.33333" />
      <path
         id="path950"
         d="m 638.37584,96.081623 c 0,-0.344 0,-0.344 -0.376,-0.344 -0.83867,0.80667 -1.98934,0.80667 -2.50934,0.80667 v 0.45866 c 0.29067,0 1.156,0 1.848,-0.344 v 6.546677 c 0,0.43333 0,0.60533 -1.27066,0.60533 h -0.48934 v 0.45734 c 0.22934,0 1.81734,-0.0573 2.276,-0.0573 0.40667,0 2.02134,0.0573 2.30667,0.0573 v -0.45734 h -0.48933 c -1.296,0 -1.296,-0.172 -1.296,-0.60533 z"
         style="fill:#000000;fill-opacity:1;fill-rule:nonzero;stroke:none;stroke-width:1.33333" />
      <path
         id="path951"
         d="m 650.98517,101.35763 c 0.19733,0 0.51467,0 0.51467,-0.28667 0,-0.34933 -0.31734,-0.34933 -0.51467,-0.34933 h -7.672 c -0.204,0 -0.52133,0 -0.52133,0.31733 0,0.31867 0.292,0.31867 0.52133,0.31867 z"
         style="fill:#000000;fill-opacity:1;fill-rule:nonzero;stroke:none;stroke-width:1.33333" />
      <path
         id="path952"
         d="m 653.84917,105.82563 c -0.0827,0.37467 -0.11467,0.464 -0.604,0.464 -0.172,0 -0.344,0 -0.344,0.28667 0,0.14533 0.11466,0.20266 0.172,0.20266 0.31733,0 0.75066,-0.0573 1.09333,-0.0573 0.43333,0 0.92267,0.0573 1.35467,0.0573 0.12,0 0.26,-0.0573 0.26,-0.28666 0,-0.20267 -0.172,-0.20267 -0.344,-0.20267 -0.29067,0 -0.63467,0 -0.63467,-0.14533 0,-0.0573 0.11467,-0.40134 0.14533,-0.57334 0.172,-0.69333 0.344,-1.38533 0.48934,-1.932 0.14133,0.25467 0.548,0.74934 1.324,0.74934 1.55733,0 3.29066,-1.73467 3.29066,-3.63467 0,-1.500007 -1.04133,-2.162677 -1.90533,-2.162677 -0.808,0 -1.5,0.548 -1.844,0.922673 -0.20267,-0.750673 -0.92267,-0.922673 -1.328,-0.922673 -0.48933,0 -0.808,0.344 -1.01067,0.69334 -0.25466,0.432003 -0.45866,1.208007 -0.45866,1.297337 0,0.14 0.172,0.14 0.22933,0.14 0.172,0 0.172,-0.0253 0.26,-0.37467 0.204,-0.750664 0.464,-1.380007 0.95333,-1.380007 0.344,0 0.432,0.28667 0.432,0.629343 0,0.14666 -0.0307,0.292 -0.056,0.376 z m 2.45333,-5.67733 c 0.74933,-1.009347 1.38533,-1.181347 1.78667,-1.181347 0.52,0 0.95333,0.37467 0.95333,1.238677 0,0.516 -0.28667,1.844 -0.66267,2.59467 -0.348,0.63466 -0.952,1.23866 -1.61866,1.23866 -0.92267,0 -1.152,-0.97866 -1.152,-1.124 0,-0.0573 0.032,-0.14666 0.032,-0.204 z"
         style="fill:#000000;fill-opacity:1;fill-rule:nonzero;stroke:none;stroke-width:1.33333" />
      <path
         id="path953"
         d="m 661.6305,94.638953 c -0.0827,0 -0.22933,0 -0.22933,0.14534 0,0.0573 0.032,0.0827 0.11466,0.20266 1.09867,1.00534 2.33867,2.74 2.33867,6.052007 0,2.68267 -0.83867,4.72934 -2.224,5.96934 -0.22933,0.23466 -0.22933,0.23466 -0.22933,0.31733 0,0.0573 0.032,0.14667 0.14666,0.14667 0.17067,0 1.38,-0.83867 2.24934,-2.45334 0.54666,-1.068 0.92133,-2.448 0.92133,-3.948 0,-1.817337 -0.54667,-4.646667 -3.088,-6.432007 z"
         style="fill:#000000;fill-opacity:1;fill-rule:nonzero;stroke:none;stroke-width:1.33333" />
      <path
         id="path954"
         d="m 367.47984,223.66963 c 0,-1.32267 -0.0787,-2.64534 -0.64666,-3.864 -0.75467,-1.60934 -2.12934,-1.87067 -2.80134,-1.87067 -1.016,0 -2.208,0.44267 -2.90666,1.97467 -0.52134,1.14 -0.59867,2.43733 -0.59867,3.76 0,1.24533 0.052,2.724 0.74933,4 0.704,1.32266 1.92267,1.656 2.72934,1.656 0.88,0 2.152,-0.33334 2.88,-1.916 0.516,-1.14667 0.59466,-2.44267 0.59466,-3.74 z m -3.47466,5.29733 c -0.65067,0 -1.63467,-0.41733 -1.92134,-2 -0.18266,-0.98533 -0.18266,-2.516 -0.18266,-3.50533 0,-1.06267 0,-2.15067 0.13066,-3.03734 0.312,-1.968 1.55734,-2.124 1.97334,-2.124 0.54266,0 1.636,0.30667 1.94266,1.94267 0.18267,0.93733 0.18267,2.18133 0.18267,3.21867 0,1.244 0,2.364 -0.18267,3.42666 -0.25466,1.584 -1.192,2.07867 -1.94266,2.07867 z"
         style="fill:#000000;fill-opacity:1;fill-rule:nonzero;stroke:none;stroke-width:1.33333" />
      <path
         id="path955"
         d="m 364.71318,38.825625 c 0,-0.416 0,-0.442667 -0.39467,-0.442667 -1.048,1.073334 -2.51067,1.073334 -3.03733,1.073334 v 0.525333 c 0.33866,0 1.308,0 2.172,-0.448 v 8.666667 c 0,0.605333 -0.052,0.786666 -1.54134,0.786666 h -0.52666 v 0.526667 c 0.57866,-0.052 2.016,-0.052 2.69866,-0.052 0.656,0 2.12,0 2.69734,0.052 v -0.526667 h -0.52534 c -1.516,0 -1.54266,-0.181333 -1.54266,-0.786666 z"
         style="fill:#000000;fill-opacity:1;fill-rule:nonzero;stroke:none;stroke-width:1.33333" />
      <path
         id="path956"
         d="M 378.03184,227.47229 V 44.368292"
         style="fill:none;stroke:#ff0000;stroke-width:0.820331;stroke-linecap:butt;stroke-linejoin:miter;stroke-miterlimit:4;stroke-dasharray:none;stroke-opacity:1" />
      <path
         id="path957"
         d="m 382.68784,44.409625 h -9.59333"
         style="fill:none;stroke:#ff0000;stroke-width:0.938139;stroke-linecap:butt;stroke-linejoin:miter;stroke-miterlimit:4;stroke-dasharray:none;stroke-opacity:1" />
      <text
         id="text957"
         xml:space="preserve"
         transform="rotate(-90)"
         x="-185.08302"
         y="362.80661"
         style="font-size:16px;stroke-width:1.33333"><tspan
           style="font-variant:normal;font-weight:normal;font-size:10.6667px;font-family:Verdana;writing-mode:lr-tb;fill:#fe0000;fill-opacity:1;fill-rule:nonzero;stroke:none;stroke-width:1.33333"
           x="-185.08302 -178.95284 -174.59276 -168.18651 -162.62923 -158.42612 -155.49904 -149.02509 -142.2751 -138.52512 -132.05116 -128.30116 -124.55118 -121.6241 -114.8741 -111.12411 -104.76997 -99.212669 -95.00956 -88.655403"
           y="362.80661"
           id="tspan957">Fraction of infected</tspan></text>
      <path
         id="path958"
         d="m 382.85984,93.590953 h -9.59333"
         style="fill:none;stroke:#ff0000;stroke-width:0.938139;stroke-linecap:butt;stroke-linejoin:miter;stroke-miterlimit:4;stroke-dasharray:none;stroke-opacity:1" />
      <path
         id="path959"
         d="m 382.70918,143.3523 h -9.59467"
         style="fill:none;stroke:#ff0000;stroke-width:0.938139;stroke-linecap:butt;stroke-linejoin:miter;stroke-miterlimit:4;stroke-dasharray:none;stroke-opacity:1" />
      <path
         id="path960"
         d="m 382.70918,184.3723 h -9.59467"
         style="fill:none;stroke:#ff0000;stroke-width:0.938139;stroke-linecap:butt;stroke-linejoin:miter;stroke-miterlimit:4;stroke-dasharray:none;stroke-opacity:1" />
      <path
         id="path961"
         d="M 567.73984,143.4923 H 386.22917"
         style="fill:none;stroke:#000000;stroke-width:1.09375;stroke-linecap:butt;stroke-linejoin:miter;stroke-miterlimit:4;stroke-dasharray:4.37499, 2.18751;stroke-dashoffset:0;stroke-opacity:1" />
      <path
         id="path962"
         d="m 387.73984,146.51896 -8.31733,-3.02666 8.31733,-3.02 c -1.51067,1.76 -1.51067,4.276 0,6.04666 z"
         style="fill:#000000;fill-opacity:1;fill-rule:evenodd;stroke:none;stroke-width:1.33333" />
      <path
         id="path963"
         d="m 569.39584,184.39363 h -182.844"
         style="fill:none;stroke:#000000;stroke-width:1.09775;stroke-linecap:butt;stroke-linejoin:miter;stroke-miterlimit:4;stroke-dasharray:4.39099, 2.19548;stroke-dashoffset:0;stroke-opacity:1" />
      <path
         id="path964"
         d="m 388.06784,187.4203 -8.31733,-3.02667 8.31733,-3.02533 c -1.516,1.76533 -1.516,4.28 0,6.052 z"
         style="fill:#000000;fill-opacity:1;fill-rule:evenodd;stroke:none;stroke-width:1.33333" />
      <path
         id="path965"
         d="m 382.55718,227.14829 h -9.59334"
         style="fill:none;stroke:#ff0000;stroke-width:0.938139;stroke-linecap:butt;stroke-linejoin:miter;stroke-miterlimit:4;stroke-dasharray:none;stroke-opacity:1" />
      <path
         id="path966"
         d="m 569.39584,93.409623 h -183.088"
         style="fill:none;stroke:#000000;stroke-width:1.09848;stroke-linecap:butt;stroke-linejoin:miter;stroke-miterlimit:4;stroke-dasharray:4.39393, 2.19696;stroke-dashoffset:0;stroke-opacity:1" />
      <path
         id="path967"
         d="m 387.82384,96.429623 -8.31866,-3.02 8.31866,-3.026666 c -1.516,1.761336 -1.516,4.281336 0,6.046666 z"
         style="fill:#000000;fill-opacity:1;fill-rule:evenodd;stroke:none;stroke-width:1.33333" />
    </g>
  </g>
</svg>
